<svg width="24" height="25" viewBox="0 0 24 25" fill="none" xmlns="http://www.w3.org/2000/svg">
<path fill-rule="evenodd" clip-rule="evenodd" d="M6.86982 9.44228H3.28475V20.5404H6.86982V9.44228ZM7.15336 5.92546C7.15336 4.8231 6.22414 3.927 5.07789 3.927C3.92861 3.927 3 4.82136 3 5.92546C3 7.02957 3.93163 7.92742 5.07789 7.92742C6.22414 7.92742 7.15336 7.02782 7.15336 5.92546ZM13.3312 9.73197H9.92463V20.5403H13.4745V15.1943C13.4745 13.7849 13.7853 12.4197 15.6052 12.4197C17.4251 12.4197 17.4509 14.0312 17.4509 15.2857V20.5403H21.0003V14.6127C21.0003 11.7014 20.3368 9.46473 16.7413 9.46473C15.0114 9.46473 13.853 10.3601 13.378 11.2106H13.3312V9.73197Z" fill="black"/>
</svg>
