<svg width="197" height="52" viewBox="0 0 197 52" fill="none" xmlns="http://www.w3.org/2000/svg">
<path fill-rule="evenodd" clip-rule="evenodd" d="M82.1671 40.5405C83.0623 40.695 83.9266 40.7876 84.76 40.7876C87.5999 40.7876 90.2237 39.7992 92.5696 37.8224V40.2934H97.4776V4H92.5388V18.1158C90.4089 16.3243 87.7851 15.305 84.9761 15.2432C81.5498 15.1815 78.1851 16.5097 75.7774 18.888C71.1472 23.4595 70.6842 30.8108 74.6971 35.9382C76.6109 38.4093 79.1421 39.9537 82.1671 40.5405ZM79.1421 22.6255C80.6237 21.1429 82.5993 20.3398 84.7292 20.3398H84.76C89.0507 20.3707 92.5388 23.8301 92.5079 28.0309C92.5079 32.2317 89.0198 35.6602 84.7292 35.6602C82.5684 35.6602 80.5928 34.8263 79.1112 33.3436C77.6604 31.8919 76.8887 30.0077 76.8887 27.9691C76.8887 25.9614 77.6913 24.0463 79.1421 22.6255Z" fill="#111111"/>
<path fill-rule="evenodd" clip-rule="evenodd" d="M127.938 52H132.877V37.8224C135.315 39.9228 138.124 40.9112 141.273 40.7568C144.946 40.5714 148.033 39.0579 150.441 36.2471C154.546 31.4595 154.423 24.2008 150.132 19.3514C147.91 16.8494 144.298 15.2741 140.686 15.2432C138.557 15.2124 135.593 15.7066 132.846 18.0849V15.7066H127.938V52ZM135.068 22.6564C136.55 21.1737 138.557 20.3398 140.686 20.3398C144.977 20.3398 148.465 23.7683 148.465 28C148.465 30.0386 147.663 31.9537 146.212 33.4054C144.73 34.8571 142.755 35.6911 140.625 35.6602C136.272 35.6293 132.846 32.2625 132.846 28C132.846 25.9923 133.649 24.1081 135.068 22.6564Z" fill="#111111"/>
<path fill-rule="evenodd" clip-rule="evenodd" d="M56.6271 40.7259C53.6946 40.7259 50.7313 39.6757 48.4162 37.6371C45.2368 34.8571 43.7551 31.2124 44.0329 26.7954C44.4033 21.0811 49.1879 16.0154 54.9293 15.305C60.7943 14.5637 65.9801 17.4054 68.4804 22.749C69.2212 24.3243 69.5608 26.0541 69.5916 28.0309V40.2934H64.5601V37.6988C63.8502 38.2548 63.0785 38.8108 62.2759 39.2741C60.5164 40.2626 58.5718 40.7259 56.6271 40.7259ZM51.2252 22.4093C52.7068 20.9266 54.6515 20.1236 56.7505 20.1236C61.0721 20.1544 64.5602 23.6448 64.5602 27.9382C64.5602 32.2626 61.0721 35.7529 56.7814 35.7529C52.3982 35.7529 48.9409 32.3243 48.9409 27.9382C48.9409 25.8378 49.7435 23.8919 51.2252 22.4093Z" fill="#111111"/>
<path fill-rule="evenodd" clip-rule="evenodd" d="M104.006 37.6371C106.321 39.6757 109.285 40.7259 112.217 40.7259C114.162 40.7259 116.106 40.2626 117.866 39.2741C118.668 38.8108 119.44 38.2548 120.15 37.6988V40.2934H125.182V28.0309C125.151 26.0541 124.811 24.3243 124.07 22.749C121.57 17.4054 116.384 14.5637 110.519 15.305C104.778 16.0154 99.9933 21.0811 99.6229 26.7954C99.3451 31.2124 100.827 34.8571 104.006 37.6371ZM112.341 20.1236C110.242 20.1236 108.297 20.9266 106.815 22.4093C105.334 23.8919 104.531 25.8378 104.531 27.9382C104.531 32.3243 107.988 35.7529 112.371 35.7529C116.662 35.7529 120.15 32.2626 120.15 27.9382C120.15 23.6448 116.662 20.1544 112.341 20.1236Z" fill="#111111"/>
<path d="M172.134 52L171.548 51.9691V47.305L172.042 47.1815C172.32 47.1197 172.597 47.0579 172.844 46.9961C172.894 46.9857 172.943 46.9755 172.992 46.9654C173.038 46.9559 173.083 46.9465 173.129 46.9372C173.603 46.8397 174.042 46.7495 174.48 46.5946C176.456 45.9151 177.907 44.6795 178.771 42.8571C179.574 41.1583 180.314 39.6448 181.024 38.2548C181.148 38.0077 181.148 37.9151 181.024 37.668C179.471 34.5939 177.917 31.4795 176.375 28.3882C175.221 26.0748 174.073 23.7743 172.937 21.5135L171.61 18.8571C171.579 18.7799 171.54 18.7027 171.502 18.6255C171.463 18.5483 171.424 18.471 171.394 18.3938L171.023 17.5907L175.468 15.4286L183.926 32.3243L192.322 15.4286L196.798 17.6834L183.309 44.8649C181.364 48.8185 178.185 51.166 173.925 51.8765C173.698 51.9176 173.472 51.9314 173.246 51.9451C173.133 51.952 173.019 51.9588 172.906 51.9691C172.814 51.9691 172.721 51.9691 172.628 52H172.134Z" fill="#111111"/>
<path d="M162.306 40.3552C163.047 40.5714 163.788 40.695 164.498 40.695C166.381 40.695 168.109 39.9846 169.653 38.5946L170.116 38.1622L166.936 34.8263L166.566 34.9807L165.918 35.2587C165.516 35.444 165.115 35.6293 164.776 35.6602C163.973 35.7529 163.232 35.5367 162.677 35.0734C162.09 34.5483 161.781 33.8069 161.781 32.9112V20.6486H168.758V15.6448H161.751V6.31659H156.781V15.6757H154.25V20.6178H156.781V32.5405C156.781 33.4363 156.843 34.1158 156.997 34.7336C157.707 37.6062 159.528 39.5521 162.306 40.3552Z" fill="#111111"/>
<path d="M18 13C18 4.16667 25.1667 0 34 0V24C34 32.8333 26.8333 40 18 40V13Z" fill="#111111"/>
<path d="M16 40C7.16667 40 0 32.8333 0 24C0 15.1667 7.16667 8 16 8V40Z" fill="#111111"/>
</svg>
