<svg xmlns="http://www.w3.org/2000/svg" width="32" height="32" viewBox="0 0 32 32" fill="none">
  <path d="M30.5387 8.67239C30.1887 7.35572 29.161 6.32239 27.8554 5.97239C25.4888 5.3335 15.9999 5.3335 15.9999 5.3335C15.9999 5.3335 6.51097 5.3335 4.1443 5.97239C2.83875 6.32239 1.81097 7.35572 1.46097 8.67239C0.827637 11.0557 0.827637 16.0224 0.827637 16.0224C0.827637 16.0224 0.827637 20.9891 1.46097 23.3724C1.81097 24.6891 2.83875 25.6779 4.1443 26.0279C6.51097 26.6668 15.9999 26.6668 15.9999 26.6668C15.9999 26.6668 25.4888 26.6668 27.8554 26.0279C29.161 25.6779 30.1887 24.6835 30.5387 23.3724C31.1721 20.9891 31.1721 16.0224 31.1721 16.0224C31.1721 16.0224 31.1721 11.0557 30.5387 8.67239ZM12.8999 20.5335V11.5113L20.8276 16.0224L12.8999 20.5335Z" fill="white" style="fill:white;fill-opacity:1;"/>
</svg>