<svg width="24" height="25" viewBox="0 0 24 25" fill="none" xmlns="http://www.w3.org/2000/svg">
<path d="M19.3211 6.267C17.9558 5.641 16.496 5.18605 14.9698 4.927C14.7824 5.2591 14.5634 5.70577 14.4125 6.0611C12.7901 5.82199 11.1827 5.82199 9.59013 6.0611C9.4392 5.70577 9.21524 5.2591 9.02615 4.927C7.49833 5.18605 6.03686 5.64267 4.67161 6.27031C1.91788 10.3483 1.1714 14.3251 1.54464 18.2454C3.37105 19.582 5.14107 20.394 6.88121 20.9254C7.31086 20.3458 7.69406 19.7298 8.02414 19.0806C7.39546 18.8465 6.79329 18.5576 6.22432 18.2222C6.37526 18.1126 6.52291 17.9979 6.66556 17.8801C10.1359 19.4708 13.9065 19.4708 17.3354 17.8801C17.4797 17.9979 17.6273 18.1126 17.7766 18.2222C17.206 18.5592 16.6022 18.8481 15.9735 19.0823C16.3036 19.7298 16.6851 20.3475 17.1164 20.927C18.8583 20.3956 20.6299 19.5837 22.4563 18.2454C22.8943 13.7007 21.7082 9.76057 19.3211 6.267ZM8.49697 15.8344C7.45519 15.8344 6.60086 14.8814 6.60086 13.7207C6.60086 12.5601 7.43694 11.6053 8.49697 11.6053C9.55698 11.6053 10.4113 12.5584 10.393 13.7207C10.3947 14.8814 9.55698 15.8344 8.49697 15.8344ZM15.504 15.8344C14.4623 15.8344 13.6079 14.8814 13.6079 13.7207C13.6079 12.5601 14.444 11.6053 15.504 11.6053C16.564 11.6053 17.4183 12.5584 17.4001 13.7207C17.4001 14.8814 16.564 15.8344 15.504 15.8344Z" fill="black"/>
</svg>
