<svg width="24" height="25" viewBox="0 0 24 25" fill="none" xmlns="http://www.w3.org/2000/svg">
<path d="M22.9997 12.8483C23.003 13.0745 22.975 13.3004 22.9155 13.5188C22.8561 13.7372 22.766 13.9465 22.648 14.1398C22.5303 14.333 22.3858 14.5089 22.219 14.6621C22.0522 14.8153 21.8647 14.9441 21.662 15.0448C21.6665 15.1051 21.6702 15.1658 21.6723 15.2265C21.6773 15.3476 21.6773 15.4688 21.6723 15.5898C21.6702 15.6505 21.6665 15.7112 21.662 15.7715C21.662 19.471 17.3514 22.4769 12.0333 22.4769C6.71531 22.4769 2.40472 19.471 2.40472 15.7715C2.40018 15.7112 2.39646 15.6505 2.3944 15.5898C2.38943 15.4688 2.38943 15.3476 2.3944 15.2265C2.39646 15.1658 2.40018 15.1051 2.40472 15.0448C2.08711 14.8988 1.80501 14.6856 1.57795 14.4198C1.35088 14.154 1.18428 13.8421 1.08966 13.5056C0.995206 13.1689 0.975086 12.8157 1.0307 12.4705C1.08631 12.1253 1.21632 11.7963 1.41172 11.5064C1.60695 11.2164 1.86292 10.9725 2.16187 10.7914C2.46083 10.6103 2.7956 10.4964 3.14297 10.4576C3.49039 10.4187 3.84211 10.4557 4.17378 10.5662C4.50544 10.6768 4.80911 10.8581 5.06374 11.0976C5.53643 10.7772 6.03168 10.4914 6.54561 10.2425C7.05966 9.99393 7.59105 9.78253 8.13565 9.61077C8.68026 9.43901 9.23684 9.30729 9.80043 9.21604C10.364 9.1248 10.9338 9.07484 11.5048 9.06616L12.727 3.33523C12.7406 3.26876 12.7675 3.206 12.8059 3.14984C12.8439 3.0941 12.893 3.04621 12.9496 3.00946C13.0065 2.97271 13.0701 2.94753 13.137 2.93514C13.2035 2.92317 13.272 2.92441 13.3381 2.93886L17.3844 3.74812C17.7928 3.04662 18.6499 2.74604 19.4068 3.03836C20.1636 3.33069 20.5963 4.12963 20.427 4.92321C20.2581 5.71679 19.5372 6.27006 18.7271 6.22836C17.9166 6.18666 17.2564 5.56237 17.1697 4.75558L13.6354 4.01237L12.5618 9.16526C13.1259 9.17723 13.6886 9.23008 14.2452 9.32298C15.3598 9.50877 16.4417 9.85449 17.4575 10.3494C17.9648 10.5963 18.4537 10.8795 18.9204 11.1967C19.2559 10.8745 19.6775 10.6564 20.1343 10.5687C20.5911 10.4806 21.0636 10.5266 21.4948 10.7012C21.926 10.8757 22.2975 11.1712 22.5646 11.5522C22.8317 11.9332 22.9828 12.3833 22.9997 12.8483ZM6.60961 15.132C6.69301 15.3322 6.8144 15.5143 6.968 15.6675C7.12118 15.8211 7.30326 15.9425 7.50352 16.0259C7.70396 16.1088 7.91875 16.1514 8.13565 16.1514C8.80371 16.1514 9.40571 15.7488 9.6617 15.132C9.91728 14.5147 9.77566 13.8045 9.30331 13.3322C8.83096 12.8598 8.12079 12.7182 7.50352 12.9738C6.88666 13.2298 6.48409 13.8318 6.48409 14.4998C6.48409 14.7166 6.52662 14.9313 6.60961 15.132ZM16.0689 19.0965C16.1536 19.014 16.2019 18.9012 16.2036 18.7832C16.2052 18.6647 16.1594 18.5507 16.0768 18.4661C15.9942 18.3814 15.8815 18.3331 15.7634 18.3314C15.6449 18.3298 15.531 18.3756 15.4356 18.4471C15.1872 18.6252 14.9242 18.782 14.6494 18.9157C14.3746 19.0495 14.089 19.1598 13.7956 19.2456C13.5024 19.3311 13.2022 19.3918 12.8988 19.4268C12.5949 19.4619 12.2889 19.471 11.9838 19.4545C11.6791 19.4681 11.3735 19.4557 11.0709 19.4178C10.7682 19.3802 10.4692 19.3166 10.1774 19.2278C9.88507 19.1395 9.60142 19.0263 9.3285 18.8901C9.05558 18.7538 8.79463 18.5945 8.54854 18.414C8.46308 18.3438 8.35449 18.3079 8.24383 18.3133C8.13318 18.3186 8.02872 18.3653 7.95027 18.4433C7.87223 18.5218 7.82557 18.6263 7.82021 18.7369C7.81484 18.8476 7.85076 18.9562 7.92095 19.0416C8.21121 19.2605 8.51964 19.4537 8.84294 19.6197C9.16623 19.7857 9.50356 19.9231 9.85039 20.0313C10.1972 20.1395 10.5527 20.2175 10.9132 20.265C11.2736 20.3121 11.6374 20.3282 12.0003 20.3133C12.3632 20.3282 12.727 20.3121 13.0875 20.265C13.8094 20.1701 14.5097 19.9518 15.1577 19.6197C15.481 19.4537 15.7894 19.2605 16.0797 19.0416L16.0689 19.0965ZM15.7659 16.2835C15.9897 16.286 16.2118 16.2426 16.4187 16.1567C16.6255 16.0705 16.8126 15.9433 16.9686 15.7827C17.1247 15.6221 17.2461 15.4313 17.3262 15.222C17.4064 15.0129 17.443 14.7896 17.434 14.5659C17.434 13.8978 17.0314 13.2958 16.4145 13.0398C15.7973 12.7843 15.0871 12.9259 14.6147 13.3982C14.1424 13.8706 14.0008 14.5807 14.2564 15.198C14.5123 15.8149 15.1143 16.2174 15.7824 16.2174L15.7659 16.2835Z" fill="white"/>
</svg>
