<svg width="24" height="25" viewBox="0 0 24 25" fill="none" xmlns="http://www.w3.org/2000/svg">
<path fill-rule="evenodd" clip-rule="evenodd" d="M11.9694 2.927C6.46485 2.927 2 7.51635 2 13.1744C2 17.7008 4.87461 21.5358 8.789 22.9189C9.27829 22.9817 9.46179 22.6674 9.46179 22.416C9.46179 22.1645 9.46179 21.5358 9.46179 20.6557C6.70949 21.2843 6.09786 19.2726 6.09786 19.2726C5.66971 18.0781 4.99696 17.7638 4.99696 17.7638C4.07951 17.1351 5.05809 17.1351 5.05809 17.1351C6.03669 17.1979 6.58715 18.2038 6.58715 18.2038C7.50459 19.7755 8.91129 19.3355 9.46179 19.084C9.52293 18.3924 9.82871 17.9523 10.0734 17.7008C7.87157 17.4494 5.54741 16.5693 5.54741 12.6086C5.54741 11.477 5.91436 10.5969 6.58715 9.84245C6.46481 9.59096 6.15904 8.52222 6.70949 7.13913C6.70949 7.13913 7.56576 6.88766 9.46179 8.20787C10.2569 7.95641 11.1131 7.89353 11.9694 7.89353C12.8257 7.89353 13.682 8.01928 14.4771 8.20787C16.3731 6.88766 17.2294 7.13913 17.2294 7.13913C17.7799 8.52222 17.4129 9.59096 17.3517 9.84245C17.9633 10.534 18.3914 11.477 18.3914 12.6086C18.3914 16.5693 16.0673 17.3866 13.8654 17.638C14.2324 17.9523 14.5382 18.581 14.5382 19.524C14.5382 20.9071 14.5382 21.9758 14.5382 22.3531C14.5382 22.6045 14.7217 22.9189 15.211 22.856C19.1865 21.4729 22 17.638 22 13.1116C21.9389 7.51635 17.474 2.927 11.9694 2.927Z" fill="white"/>
</svg>
