<svg width="16" height="16" viewBox="0 0 16 16" fill="none"><path d="M14.5 12.5C14.5 12.7652 14.3946 13.0195 14.207 13.207C14.0195 13.3946 13.7652 13.5 13.5 13.5H12.2373C12.6251 13.2046 12.9796 12.8685 13.2979 12.5H13.5V12.2549C13.9109 11.7332 14.2495 11.1526 14.5 10.5264V12.5ZM1.5 10.5264C1.75049 11.1526 2.08907 11.7332 2.5 12.2549V12.5H2.70215C3.0204 12.8685 3.37489 13.2046 3.7627 13.5H2.5C2.23478 13.5 1.98051 13.3946 1.79297 13.207C1.60543 13.0195 1.5 12.7652 1.5 12.5V10.5264ZM3.58203 2.5C2.66726 3.24537 1.94533 4.21712 1.5 5.33008V3.5C1.5 3.23478 1.60543 2.98051 1.79297 2.79297C1.98051 2.60543 2.23478 2.5 2.5 2.5H3.58203ZM13.5 2.5C13.7652 2.5 14.0195 2.60543 14.207 2.79297C14.3946 2.98051 14.5 3.23478 14.5 3.5V5.33008C14.0547 4.21712 13.3327 3.24537 12.418 2.5H13.5Z" fill="currentColor"/><path d="M4.57142 8.40063C3.98061 8.40063 3.40307 8.57583 2.91183 8.90407C2.42059 9.2323 2.03771 9.69884 1.81162 10.2447C1.58552 10.7905 1.52637 11.3911 1.64163 11.9706C1.75689 12.5501 2.04139 13.0823 2.45916 13.5001C2.87692 13.9179 3.40919 14.2024 3.98865 14.3176C4.56811 14.4329 5.16873 14.3737 5.71457 14.1476C6.26041 13.9215 6.72694 13.5387 7.05518 13.0474C7.38341 12.5562 7.55861 11.9786 7.55861 11.3878C7.55777 10.5958 7.24278 9.83651 6.68276 9.27649C6.12273 8.71646 5.36341 8.40147 4.57142 8.40063ZM5.65313 11.7802L4.73399 12.6993C4.71265 12.7207 4.68731 12.7376 4.65941 12.7492C4.63152 12.7608 4.60162 12.7667 4.57142 12.7667C4.54122 12.7667 4.51132 12.7608 4.48343 12.7492C4.45553 12.7376 4.43019 12.7207 4.40885 12.6993L3.48971 11.7802C3.4466 11.7371 3.42237 11.6786 3.42237 11.6176C3.42237 11.5566 3.4466 11.4982 3.48971 11.455C3.53283 11.4119 3.59131 11.3877 3.65228 11.3877C3.71326 11.3877 3.77174 11.4119 3.81486 11.455L4.34164 11.9821V10.2389C4.34164 10.178 4.36585 10.1195 4.40894 10.0764C4.45203 10.0333 4.51048 10.0091 4.57142 10.0091C4.63236 10.0091 4.69081 10.0333 4.7339 10.0764C4.77699 10.1195 4.8012 10.178 4.8012 10.2389V11.9821L5.32798 11.455C5.3711 11.4119 5.42958 11.3877 5.49055 11.3877C5.55153 11.3877 5.61001 11.4119 5.65313 11.455C5.69624 11.4982 5.72047 11.5566 5.72047 11.6176C5.72047 11.6786 5.69624 11.7371 5.65313 11.7802Z" fill="currentColor"/></svg>
