<svg width="16" height="16" viewBox="0 0 16 16" fill="none" xmlns="http://www.w3.org/2000/svg"><g clip-path="url(#clip0_459_303)"><path d="M1.3335 8.00001C1.3335 11.6819 4.31826 14.6667 8.00016 14.6667C9.10473 14.6667 10.0002 13.7712 10.0002 12.6667V12.3333C10.0002 12.0237 10.0002 11.8689 10.0173 11.739C10.1354 10.8415 10.8416 10.1353 11.7391 10.0171C11.8691 10 12.0239 10 12.3335 10H12.6668C13.7714 10 14.6668 9.10458 14.6668 8.00001C14.6668 4.31811 11.6821 1.33334 8.00016 1.33334C4.31826 1.33334 1.3335 4.31811 1.3335 8.00001Z" stroke="currentColor" stroke-width="1.25" stroke-linecap="round" stroke-linejoin="round"></path><path d="M4.66683 8.66668C5.03502 8.66668 5.3335 8.3682 5.3335 8.00001C5.3335 7.63182 5.03502 7.33334 4.66683 7.33334C4.29864 7.33334 4.00016 7.63182 4.00016 8.00001C4.00016 8.3682 4.29864 8.66668 4.66683 8.66668Z" stroke="currentColor" stroke-width="1.25" stroke-linecap="round" stroke-linejoin="round"></path><path d="M10.6668 6.00001C11.035 6.00001 11.3335 5.70153 11.3335 5.33334C11.3335 4.96515 11.035 4.66668 10.6668 4.66668C10.2986 4.66668 10.0002 4.96515 10.0002 5.33334C10.0002 5.70153 10.2986 6.00001 10.6668 6.00001Z" stroke="currentColor" stroke-width="1.25" stroke-linecap="round" stroke-linejoin="round"></path><path d="M6.66683 5.33334C7.03502 5.33334 7.3335 5.03487 7.3335 4.66668C7.3335 4.29849 7.03502 4.00001 6.66683 4.00001C6.29864 4.00001 6.00016 4.29849 6.00016 4.66668C6.00016 5.03487 6.29864 5.33334 6.66683 5.33334Z" stroke="currentColor" stroke-width="1.25" stroke-linecap="round" stroke-linejoin="round"></path></g><defs><clipPath id="clip0_459_303"><rect width="16" height="16" fill="white"></rect></clipPath></defs></svg>