<svg width="16" height="16" viewBox="0 0 16 16" fill="none" xmlns="http://www.w3.org/2000/svg"><path d="M5.7943 14.4412C5.96891 14.7389 6.35184 14.8388 6.6496 14.6642C6.94735 14.4895 7.04719 14.1066 6.87258 13.8089L6.33344 14.125L5.7943 14.4412ZM4.95907 11.7813L4.4157 12.0902L4.41993 12.0974L4.95907 11.7813ZM6.58282 10.8438L6.04364 11.1599C6.04645 11.1646 6.04933 11.1694 6.05226 11.1741L6.58282 10.8438ZM7.45844 12.25L6.92789 12.5804C7.07537 12.8172 7.36198 12.9276 7.63024 12.8509C7.89851 12.7742 8.08344 12.529 8.08344 12.25H7.45844ZM8.70844 9.81251C8.70844 10.1577 8.98827 10.4375 9.33344 10.4375C9.67862 10.4375 9.95844 10.1577 9.95844 9.81251H9.33344H8.70844ZM11.2084 9.81251H11.8334H11.2084ZM10.5834 10.5625C10.5834 10.9077 10.8633 11.1875 11.2084 11.1875C11.5536 11.1875 11.8334 10.9077 11.8334 10.5625H11.2084H10.5834ZM13.0834 10.5625H13.7084H13.0834ZM12.1494 13.8455C11.9951 14.1542 12.1202 14.5297 12.4289 14.684C12.7377 14.8384 13.1131 14.7133 13.2675 14.4045L12.7084 14.125L12.1494 13.8455ZM13.9004 4.68307C13.6563 4.43899 13.2606 4.43899 13.0165 4.68307C12.7724 4.92715 12.7724 5.32288 13.0165 5.56696L13.4584 5.12501L13.9004 4.68307ZM14.9584 6.62501L15.4004 7.06696C15.6445 6.82288 15.6445 6.42715 15.4004 6.18307L14.9584 6.62501ZM13.0165 7.68307C12.7724 7.92715 12.7724 8.32288 13.0165 8.56696C13.2606 8.81103 13.6563 8.81103 13.9004 8.56696L13.4584 8.12501L13.0165 7.68307ZM11.5834 6.00001C11.2383 6.00001 10.9584 6.27984 10.9584 6.62501C10.9584 6.97019 11.2383 7.25001 11.5834 7.25001V6.62501V6.00001ZM4.36412 3.26068L4.64786 2.70381V2.70381L4.36412 3.26068ZM4.07277 2.96934L4.62965 2.6856V2.6856L4.07277 2.96934ZM7.92745 2.96934L7.37057 2.6856L7.37057 2.6856L7.92745 2.96934ZM7.6361 3.26068L7.35236 2.70381L7.35236 2.70381L7.6361 3.26068ZM3.7335 1.33331L3.73358 0.708313H3.7335V1.33331ZM3.7335 15.2916C4.07867 15.2916 4.3585 15.0118 4.3585 14.6666C4.3585 14.3215 4.07867 14.0416 3.7335 14.0416V14.6666V15.2916ZM2.32818 14.5213L2.04443 15.0782L2.04443 15.0782L2.32818 14.5213ZM1.74549 13.9386L1.18861 14.2224H1.18861L1.74549 13.9386ZM9.93877 1.47867L10.2225 0.921793V0.921792L9.93877 1.47867ZM10.5215 2.06136L9.96457 2.3451V2.3451L10.5215 2.06136ZM2.32818 1.47864L2.61192 2.03552V2.03552L2.32818 1.47864ZM1.74549 2.06133L2.30237 2.34507H2.30237L1.74549 2.06133ZM10.0418 4.6765C10.0418 5.02168 10.3216 5.3015 10.6668 5.3015C11.012 5.3015 11.2918 5.02168 11.2918 4.6765H10.6668H10.0418ZM6.33344 14.125L6.87258 13.8089L5.49821 11.4651L4.95907 11.7813L4.41993 12.0974L5.7943 14.4412L6.33344 14.125ZM4.95907 11.7813L5.50239 11.4724C5.4616 11.4006 5.45085 11.3157 5.47247 11.236L4.8693 11.0723L4.26614 10.9085C4.15803 11.3067 4.21181 11.7315 4.41575 12.0902L4.95907 11.7813ZM4.8693 11.0723L5.47247 11.236C5.49409 11.1564 5.54633 11.0885 5.6178 11.0473L5.30529 10.506L4.99279 9.96474C4.63546 10.1711 4.37424 10.5103 4.26614 10.9085L4.8693 11.0723ZM5.30529 10.506L5.6178 11.0473C5.68926 11.006 5.77415 10.9947 5.85393 11.0158L6.01368 10.4115L6.17343 9.8073C5.77453 9.70184 5.35011 9.75844 4.99279 9.96474L5.30529 10.506ZM6.01368 10.4115L5.85393 11.0158C5.93371 11.0369 6.00191 11.0887 6.04364 11.1599L6.58282 10.8438L7.122 10.5277C6.91332 10.1717 6.57233 9.91276 6.17343 9.8073L6.01368 10.4115ZM6.58282 10.8438L6.05226 11.1741L6.92789 12.5804L7.45844 12.25L7.989 11.9197L7.11337 10.5134L6.58282 10.8438ZM7.45844 12.25H8.08344V7.18751H7.45844H6.83344V12.25H7.45844ZM7.45844 7.18751H8.08344C8.08344 7.10463 8.11637 7.02515 8.17497 6.96654L7.73303 6.5246L7.29109 6.08266C6.99806 6.37569 6.83344 6.77311 6.83344 7.18751H7.45844ZM7.73303 6.5246L8.17497 6.96654C8.23358 6.90794 8.31306 6.87501 8.39594 6.87501V6.25001V5.62501C7.98154 5.62501 7.58412 5.78963 7.29109 6.08266L7.73303 6.5246ZM8.39594 6.25001V6.87501C8.47882 6.87501 8.55831 6.90794 8.61691 6.96654L9.05886 6.5246L9.5008 6.08266C9.20777 5.78963 8.81034 5.62501 8.39594 5.62501V6.25001ZM9.05886 6.5246L8.61691 6.96654C8.67552 7.02515 8.70844 7.10464 8.70844 7.18751H9.33344H9.95844C9.95844 6.77311 9.79382 6.37568 9.5008 6.08266L9.05886 6.5246ZM9.33344 7.18751H8.70844V9.81251H9.33344H9.95844V7.18751H9.33344ZM9.33344 9.81251H9.95844C9.95844 9.72963 9.99137 9.65015 10.05 9.59154L9.60803 9.1496L9.16609 8.70766C8.87307 9.00068 8.70844 9.39811 8.70844 9.81251H9.33344ZM9.60803 9.1496L10.05 9.59154C10.1086 9.53294 10.1881 9.50002 10.2709 9.50002V8.87501V8.25001C9.85654 8.25001 9.45912 8.41464 9.16609 8.70766L9.60803 9.1496ZM10.2709 8.87501V9.50002C10.3538 9.50002 10.4333 9.53294 10.4919 9.59154L10.9339 9.1496L11.3758 8.70766C11.0828 8.41464 10.6853 8.25001 10.2709 8.25001V8.87501ZM10.9339 9.1496L10.4919 9.59154C10.5505 9.65015 10.5834 9.72963 10.5834 9.81251H11.2084H11.8334C11.8334 9.39811 11.6688 9.00068 11.3758 8.70766L10.9339 9.1496ZM11.2084 9.81251H10.5834V10.5625H11.2084H11.8334V9.81251H11.2084ZM11.2084 10.5625H11.8334C11.8334 10.4796 11.8664 10.4001 11.925 10.3415L11.483 9.8996L11.0411 9.45766C10.7481 9.75068 10.5834 10.1481 10.5834 10.5625H11.2084ZM11.483 9.8996L11.925 10.3415C11.9836 10.2829 12.0631 10.25 12.1459 10.25V9.62501V9.00001C11.7315 9.00001 11.3341 9.16463 11.0411 9.45766L11.483 9.8996ZM12.1459 9.62501V10.25C12.2288 10.25 12.3083 10.2829 12.3669 10.3415L12.8089 9.8996L13.2508 9.45766C12.9578 9.16463 12.5603 9.00001 12.1459 9.00001V9.62501ZM12.8089 9.8996L12.3669 10.3415C12.4255 10.4001 12.4584 10.4796 12.4584 10.5625H13.0834H13.7084C13.7084 10.1481 13.5438 9.75068 13.2508 9.45766L12.8089 9.8996ZM13.0834 10.5625H12.4584V12.25H13.0834H13.7084V10.5625H13.0834ZM13.0834 12.25H12.4584C12.4584 12.7436 12.3761 13.154 12.295 13.4377C12.2546 13.5792 12.2148 13.6879 12.1867 13.7581C12.1727 13.7932 12.1617 13.8185 12.155 13.8333C12.1516 13.8408 12.1493 13.8455 12.1484 13.8476C12.1479 13.8486 12.1477 13.849 12.1479 13.8486C12.148 13.8485 12.1481 13.8481 12.1484 13.8476C12.1485 13.8473 12.1487 13.847 12.1488 13.8467C12.1489 13.8465 12.149 13.8463 12.1491 13.8461C12.1492 13.846 12.1492 13.8459 12.1493 13.8458C12.1493 13.8457 12.1494 13.8455 12.7084 14.125C13.2675 14.4045 13.2675 14.4044 13.2676 14.4042C13.2677 14.4041 13.2677 14.404 13.2678 14.4038C13.2679 14.4036 13.2681 14.4033 13.2682 14.4031C13.2684 14.4025 13.2687 14.402 13.269 14.4013C13.2697 14.4001 13.2704 14.3986 13.2712 14.397C13.2728 14.3938 13.2747 14.3898 13.2769 14.385C13.2815 14.3755 13.2873 14.3631 13.2942 14.3478C13.308 14.3173 13.3262 14.2752 13.3473 14.2224C13.3896 14.1168 13.4436 13.9677 13.4969 13.7811C13.6033 13.4086 13.7084 12.8814 13.7084 12.25H13.0834ZM13.4584 5.12501L13.0165 5.56696L14.5165 7.06696L14.9584 6.62501L15.4004 6.18307L13.9004 4.68307L13.4584 5.12501ZM14.9584 6.62501L14.5165 6.18307L13.0165 7.68307L13.4584 8.12501L13.9004 8.56696L15.4004 7.06696L14.9584 6.62501ZM11.5834 6.62501V7.25001H14.9584V6.62501V6.00001H11.5834V6.62501ZM8.00011 1.33335H7.37511V2.26668H8.00011H8.62511V1.33335H8.00011ZM6.93344 3.33335V2.70835H5.06678V3.33335V3.95835H6.93344V3.33335ZM4.00011 2.26668H4.62511V1.33335H4.00011H3.37511V2.26668H4.00011ZM5.06678 3.33335V2.70835C4.86978 2.70835 4.75962 2.70786 4.67981 2.70134C4.60729 2.69541 4.61637 2.68776 4.64786 2.70381L4.36412 3.26068L4.08037 3.81756C4.25447 3.90627 4.4282 3.93495 4.57802 3.94719C4.72054 3.95883 4.89041 3.95835 5.06678 3.95835V3.33335ZM4.00011 2.26668H3.37511C3.37511 2.44305 3.37462 2.61292 3.38627 2.75544C3.39851 2.90526 3.42719 3.07899 3.51589 3.25308L4.07277 2.96934L4.62965 2.6856C4.6457 2.71709 4.63804 2.72617 4.63212 2.65365C4.6256 2.57384 4.62511 2.46368 4.62511 2.26668H4.00011ZM4.36412 3.26068L4.64786 2.70381C4.64002 2.69981 4.63365 2.69344 4.62965 2.6856L4.07277 2.96934L3.51589 3.25308C3.63973 3.49613 3.83733 3.69373 4.08037 3.81756L4.36412 3.26068ZM8.00011 2.26668H7.37511C7.37511 2.46368 7.37462 2.57384 7.3681 2.65365C7.36218 2.72617 7.35453 2.71709 7.37057 2.6856L7.92745 2.96934L8.48433 3.25308C8.57303 3.07899 8.60171 2.90526 8.61395 2.75544C8.6256 2.61292 8.62511 2.44305 8.62511 2.26668H8.00011ZM6.93344 3.33335V3.95835C7.10982 3.95835 7.27968 3.95883 7.4222 3.94719C7.57202 3.93495 7.74575 3.90627 7.91985 3.81756L7.6361 3.26068L7.35236 2.70381C7.38385 2.68776 7.39293 2.69541 7.32042 2.70134C7.2406 2.70786 7.13044 2.70835 6.93344 2.70835V3.33335ZM7.92745 2.96934L7.37057 2.6856C7.36657 2.69344 7.3602 2.69981 7.35236 2.70381L7.6361 3.26068L7.91985 3.81756C8.16289 3.69373 8.36049 3.49613 8.48433 3.25308L7.92745 2.96934ZM3.7335 1.33331L3.73342 1.95831L4.00003 1.95835L4.00011 1.33335L4.00019 0.708347L3.73358 0.708313L3.7335 1.33331ZM4.00011 1.33335V1.95835H8.00011V1.33335V0.708347H4.00011V1.33335ZM8.00011 1.33335V1.95835H8.53344V1.33335V0.708347H8.00011V1.33335ZM1.60016 12.5333H2.22516V3.46665H1.60016H0.975163V12.5333H1.60016ZM3.7335 14.6666V14.0416C3.34981 14.0416 3.09964 14.0412 2.90866 14.0256C2.72497 14.0105 2.65173 13.9847 2.61192 13.9644L2.32818 14.5213L2.04443 15.0782C2.28983 15.2032 2.54588 15.2501 2.80687 15.2714C3.06056 15.2921 3.37044 15.2916 3.7335 15.2916V14.6666ZM1.60016 12.5333H0.975163C0.975163 12.8964 0.974677 13.2062 0.995404 13.4599C1.01673 13.7209 1.06357 13.977 1.18861 14.2224L1.74549 13.9386L2.30237 13.6549C2.28208 13.6151 2.25626 13.5418 2.24125 13.3581C2.22565 13.1672 2.22516 12.917 2.22516 12.5333H1.60016ZM2.32818 14.5213L2.61192 13.9644C2.47864 13.8965 2.37028 13.7882 2.30237 13.6549L1.74549 13.9386L1.18861 14.2224C1.37636 14.5909 1.67595 14.8904 2.04443 15.0782L2.32818 14.5213ZM8.53344 1.33335V1.95835C8.91713 1.95835 9.1673 1.95883 9.35828 1.97444C9.54197 1.98944 9.61521 2.01526 9.65502 2.03555L9.93877 1.47867L10.2225 0.921792C9.97711 0.796755 9.72106 0.749911 9.46007 0.728588C9.20638 0.707861 8.8965 0.708347 8.53344 0.708347V1.33335ZM10.6668 3.46668H11.2918C11.2918 3.10362 11.2923 2.79374 11.2715 2.54005C11.2502 2.27907 11.2034 2.02302 11.0783 1.77762L10.5215 2.06136L9.96457 2.3451C9.98486 2.38492 10.0107 2.45816 10.0257 2.64184C10.0413 2.83283 10.0418 3.083 10.0418 3.46668H10.6668ZM9.93877 1.47867L9.65502 2.03555C9.7883 2.10346 9.89666 2.21182 9.96457 2.3451L10.5215 2.06136L11.0783 1.77762C10.8906 1.40913 10.591 1.10954 10.2225 0.921793L9.93877 1.47867ZM3.7335 1.33331V0.708313C3.37044 0.708313 3.06056 0.707827 2.80687 0.728554C2.54588 0.749878 2.28983 0.796721 2.04443 0.921759L2.32818 1.47864L2.61192 2.03552C2.65173 2.01523 2.72497 1.98941 2.90866 1.9744C3.09964 1.9588 3.34981 1.95831 3.7335 1.95831V1.33331ZM1.60016 3.46665H2.22516C2.22516 3.08297 2.22565 2.83279 2.24125 2.64181C2.25626 2.45812 2.28208 2.38489 2.30237 2.34507L1.74549 2.06133L1.18861 1.77758C1.06357 2.02298 1.01673 2.27903 0.995404 2.54002C0.974677 2.79371 0.975163 3.10359 0.975163 3.46665H1.60016ZM2.32818 1.47864L2.04443 0.921759C1.67595 1.10951 1.37636 1.4091 1.18861 1.77758L1.74549 2.06133L2.30237 2.34507C2.37028 2.21179 2.47864 2.10343 2.61192 2.03552L2.32818 1.47864ZM10.6668 3.46668H10.0418V4.6765H10.6668H11.2918V3.46668H10.6668Z" fill="currentColor"></path></svg>