<svg width="16" height="16" viewBox="0 0 16 16" fill="none" xmlns="http://www.w3.org/2000/svg"><path d="M2 3.5V2.5C2 2.36739 2.05268 2.24021 2.14645 2.14645C2.24021 2.05268 2.36739 2 2.5 2H4.5" stroke="currentColor" stroke-width="1.25" stroke-linecap="round" stroke-linejoin="round"></path><path d="M2 9.23633L2 6.83936" stroke="currentColor" stroke-width="1.25" stroke-linecap="round" stroke-linejoin="round"></path><path d="M4.5 14H2.5C2.36739 14 2.24021 13.9473 2.14645 13.8536C2.05268 13.7598 2 13.6326 2 13.5V12.5" stroke="currentColor" stroke-width="1.25" stroke-linecap="round" stroke-linejoin="round"></path><path d="M9 14H7" stroke="currentColor" stroke-width="1.25" stroke-linecap="round" stroke-linejoin="round"></path><path d="M14 12.5V13.5C14 13.6326 13.9473 13.7598 13.8536 13.8536C13.7598 13.9473 13.6326 14 13.5 14H11.5" stroke="currentColor" stroke-width="1.25" stroke-linecap="round" stroke-linejoin="round"></path><path d="M14 6.83936L14 9.23633" stroke="currentColor" stroke-width="1.25" stroke-linecap="round" stroke-linejoin="round"></path><path d="M11.5 2H13.5C13.6326 2 13.7598 2.05268 13.8536 2.14645C13.9473 2.24021 14 2.36739 14 2.5V3.5" stroke="currentColor" stroke-width="1.25" stroke-linecap="round" stroke-linejoin="round"></path><path d="M7 2H9" stroke="currentColor" stroke-width="1.25" stroke-linecap="round" stroke-linejoin="round"></path></svg>
