<svg width="16" height="16" viewBox="0 0 16 16" fill="none" xmlns="http://www.w3.org/2000/svg"><path d="M13.5 2H2.5C2.22386 2 2 2.26863 2 2.6V13.4C2 13.7314 2.22386 14 2.5 14H13.5C13.7761 14 14 13.7314 14 13.4V2.6C14 2.26863 13.7761 2 13.5 2Z" stroke="currentColor" stroke-width="1.25" stroke-linecap="round" stroke-linejoin="round"></path><path d="M4.09966 3.25C4.51379 3.25009 4.84966 3.58584 4.84966 4C4.84966 4.41416 4.51379 4.74991 4.09966 4.75H4.09282C3.67861 4.75 3.34282 4.41421 3.34282 4C3.34282 3.58579 3.67861 3.25 4.09282 3.25H4.09966Z" fill="currentColor"></path><path d="M4.09966 5.25C4.51379 5.25009 4.84966 5.58584 4.84966 6C4.84966 6.41416 4.51379 6.74991 4.09966 6.75H4.09282C3.67861 6.75 3.34282 6.41421 3.34282 6C3.34282 5.58579 3.67861 5.25 4.09282 5.25H4.09966Z" fill="currentColor"></path><path d="M4.09966 7.25C4.51379 7.25009 4.84966 7.58584 4.84966 8C4.84966 8.41416 4.51379 8.74991 4.09966 8.75H4.09282C3.67861 8.75 3.34282 8.41421 3.34282 8C3.34282 7.58579 3.67861 7.25 4.09282 7.25H4.09966Z" fill="currentColor"></path><path d="M4.09966 9.25C4.51379 9.25009 4.84966 9.58584 4.84966 10C4.84966 10.4142 4.51379 10.7499 4.09966 10.75H4.09282C3.67861 10.75 3.34282 10.4142 3.34282 10C3.34282 9.58579 3.67861 9.25 4.09282 9.25H4.09966Z" fill="currentColor"></path><path d="M6.09966 4.375C6.44476 4.37509 6.72466 4.65488 6.72466 5C6.72466 5.34512 6.44476 5.62491 6.09966 5.625H6.09282C5.74764 5.625 5.46782 5.34518 5.46782 5C5.46782 4.65482 5.74764 4.375 6.09282 4.375H6.09966Z" fill="currentColor"></path><path d="M6.09966 6.375C6.44476 6.37509 6.72466 6.65488 6.72466 7C6.72466 7.34512 6.44476 7.62491 6.09966 7.625H6.09282C5.74764 7.625 5.46782 7.34518 5.46782 7C5.46782 6.65482 5.74764 6.375 6.09282 6.375H6.09966Z" fill="currentColor"></path><path d="M6.09966 8.375C6.44476 8.37509 6.72466 8.65488 6.72466 9C6.72466 9.34512 6.44476 9.62491 6.09966 9.625H6.09282C5.74764 9.625 5.46782 9.34518 5.46782 9C5.46782 8.65482 5.74764 8.375 6.09282 8.375H6.09966Z" fill="currentColor"></path><path d="M10.0997 4.625C10.3067 4.62509 10.4747 4.79295 10.4747 5C10.4747 5.20705 10.3067 5.37491 10.0997 5.375H10.0928C9.88571 5.375 9.71782 5.20711 9.71782 5C9.71782 4.79289 9.88571 4.625 10.0928 4.625H10.0997Z" fill="currentColor"></path><path d="M10.0997 6.625C10.3067 6.62509 10.4747 6.79295 10.4747 7C10.4747 7.20705 10.3067 7.37491 10.0997 7.375H10.0928C9.88571 7.375 9.71782 7.20711 9.71782 7C9.71782 6.79289 9.88571 6.625 10.0928 6.625H10.0997Z" fill="currentColor"></path><path d="M10.0997 8.625C10.3067 8.62509 10.4747 8.79295 10.4747 9C10.4747 9.20705 10.3067 9.37491 10.0997 9.375H10.0928C9.88571 9.375 9.71782 9.20711 9.71782 9C9.71782 8.79289 9.88571 8.625 10.0928 8.625H10.0997Z" fill="currentColor"></path><path d="M8.09966 3.5C8.37572 3.50009 8.59966 3.72391 8.59966 4C8.59966 4.27609 8.37572 4.49991 8.09966 4.5H8.09282C7.81668 4.5 7.59282 4.27614 7.59282 4C7.59282 3.72386 7.81668 3.5 8.09282 3.5H8.09966Z" fill="currentColor"></path><path d="M8.09966 5.5C8.37572 5.50009 8.59966 5.72391 8.59966 6C8.59966 6.27609 8.37572 6.49991 8.09966 6.5H8.09282C7.81668 6.5 7.59282 6.27614 7.59282 6C7.59282 5.72386 7.81668 5.5 8.09282 5.5H8.09966Z" fill="currentColor"></path><path d="M8.09966 7.5C8.37572 7.50009 8.59966 7.72391 8.59966 8C8.59966 8.27609 8.37572 8.49991 8.09966 8.5H8.09282C7.81668 8.5 7.59282 8.27614 7.59282 8C7.59282 7.72386 7.81668 7.5 8.09282 7.5H8.09966Z" fill="currentColor"></path><path d="M8.09966 9.5C8.37572 9.50009 8.59966 9.72391 8.59966 10C8.59966 10.2761 8.37572 10.4999 8.09966 10.5H8.09282C7.81668 10.5 7.59282 10.2761 7.59282 10C7.59282 9.72386 7.81668 9.5 8.09282 9.5H8.09966Z" fill="currentColor"></path><path d="M12.0997 3.75C12.2376 3.75009 12.3497 3.86199 12.3497 4C12.3497 4.13801 12.2376 4.24991 12.0997 4.25H12.0928C11.9547 4.25 11.8428 4.13807 11.8428 4C11.8428 3.86193 11.9547 3.75 12.0928 3.75H12.0997Z" fill="currentColor"></path><path d="M12.0997 5.75C12.2376 5.75009 12.3497 5.86199 12.3497 6C12.3497 6.13801 12.2376 6.24991 12.0997 6.25H12.0928C11.9547 6.25 11.8428 6.13807 11.8428 6C11.8428 5.86193 11.9547 5.75 12.0928 5.75H12.0997Z" fill="currentColor"></path><path d="M12.0997 7.75C12.2376 7.75009 12.3497 7.86199 12.3497 8C12.3497 8.13801 12.2376 8.24991 12.0997 8.25H12.0928C11.9547 8.25 11.8428 8.13807 11.8428 8C11.8428 7.86193 11.9547 7.75 12.0928 7.75H12.0997Z" fill="currentColor"></path><path d="M12.0997 9.75C12.2376 9.75009 12.3497 9.86199 12.3497 10C12.3497 10.138 12.2376 10.2499 12.0997 10.25H12.0928C11.9547 10.25 11.8428 10.1381 11.8428 10C11.8428 9.86193 11.9547 9.75 12.0928 9.75H12.0997Z" fill="currentColor"></path><path d="M4.09961 11.2831C4.51375 11.2832 4.84961 11.619 4.84961 12.0331C4.84961 12.4473 4.51375 12.783 4.09961 12.7831H4.09277C3.67856 12.7831 3.34277 12.4473 3.34277 12.0331C3.34277 11.6189 3.67856 11.2831 4.09277 11.2831H4.09961Z" fill="currentColor"></path><path d="M6.09961 10.4081C6.44471 10.4082 6.72461 10.688 6.72461 11.0331C6.72461 11.3782 6.44471 11.658 6.09961 11.6581H6.09277C5.7476 11.6581 5.46777 11.3783 5.46777 11.0331C5.46777 10.6879 5.7476 10.4081 6.09277 10.4081H6.09961Z" fill="currentColor"></path><path d="M10.0996 10.6581C10.3066 10.6582 10.4746 10.8261 10.4746 11.0331C10.4746 11.2402 10.3066 11.408 10.0996 11.4081H10.0928C9.88567 11.4081 9.71777 11.2402 9.71777 11.0331C9.71777 10.826 9.88567 10.6581 10.0928 10.6581H10.0996Z" fill="currentColor"></path><path d="M8.09961 11.5331C8.37567 11.5332 8.59961 11.757 8.59961 12.0331C8.59961 12.3092 8.37567 12.533 8.09961 12.5331H8.09277C7.81663 12.5331 7.59277 12.3093 7.59277 12.0331C7.59277 11.757 7.81663 11.5331 8.09277 11.5331H8.09961Z" fill="currentColor"></path><path d="M12.0996 11.7831C12.2376 11.7832 12.3496 11.8951 12.3496 12.0331C12.3496 12.1711 12.2376 12.283 12.0996 12.2831H12.0928C11.9547 12.2831 11.8428 12.1712 11.8428 12.0331C11.8428 11.895 11.9547 11.7831 12.0928 11.7831H12.0996Z" fill="currentColor"></path></svg>
