<svg width="16" height="16" viewBox="0 0 16 16" fill="none" xmlns="http://www.w3.org/2000/svg"><path d="M6.25 3.75H3.25C2.97386 3.75 2.75 3.97386 2.75 4.25V7.25C2.75 7.52614 2.97386 7.75 3.25 7.75H6.25C6.52614 7.75 6.75 7.52614 6.75 7.25V4.25C6.75 3.97386 6.52614 3.75 6.25 3.75Z" stroke="currentColor" stroke-width="1.25" stroke-linecap="round" stroke-linejoin="round"></path><path d="M12.75 2.25H9.75C9.47386 2.25 9.25 2.47386 9.25 2.75V5.75C9.25 6.02614 9.47386 6.25 9.75 6.25H12.75C13.0261 6.25 13.25 6.02614 13.25 5.75V2.75C13.25 2.47386 13.0261 2.25 12.75 2.25Z" stroke="currentColor" stroke-width="1.25" stroke-linecap="round" stroke-linejoin="round"></path><path d="M9.75 9.75H6.75C6.47386 9.75 6.25 9.97386 6.25 10.25V13.25C6.25 13.5261 6.47386 13.75 6.75 13.75H9.75C10.0261 13.75 10.25 13.5261 10.25 13.25V10.25C10.25 9.97386 10.0261 9.75 9.75 9.75Z" stroke="currentColor" stroke-width="1.25" stroke-linecap="round" stroke-linejoin="round"></path></svg>
