<svg width="16" height="16" viewBox="0 0 16 16" fill="none" xmlns="http://www.w3.org/2000/svg"><path d="M3.33333 8H12.6733M14 14V13.4667C14 12.7199 14 12.3466 13.8547 12.0614C13.7268 11.8109 13.5225 11.6066 13.272 11.4787C12.9868 11.3334 12.6134 11.3334 11.8667 11.3334H11.4667C10.7199 11.3334 10.3466 11.3334 10.0614 11.4787C9.81083 11.6066 9.60656 11.8109 9.47866 12.0614C9.33333 12.3466 9.33333 12.7199 9.33333 13.4667V14M14 2.00003V2.5334C14 3.28012 14 3.65348 13.8547 3.93868C13.7268 4.18922 13.5225 4.39349 13.272 4.52139C12.9868 4.66669 12.6134 4.66669 11.8667 4.66669H11.4667C10.7199 4.66669 10.3466 4.66669 10.0614 4.52139C9.81083 4.39349 9.60656 4.18922 9.47866 3.93868C9.33333 3.65348 9.33333 3.28012 9.33333 2.5334V2.00003M2 14V13.4667C2 12.7199 2 12.3466 2.14532 12.0614C2.27316 11.8109 2.47747 11.6066 2.72801 11.4787C3.01323 11.3334 3.38654 11.3334 4.13333 11.3334H4.53333C5.28009 11.3334 5.65348 11.3334 5.93868 11.4787C6.18922 11.6066 6.39349 11.8109 6.52139 12.0614C6.66667 12.3466 6.66667 12.7199 6.66667 13.4667V14M2 2.00003V2.5334C2 3.28012 2 3.65348 2.14532 3.93868C2.27316 4.18922 2.47747 4.39349 2.72801 4.52139C3.01323 4.66669 3.38654 4.66669 4.13333 4.66669H4.53333C5.28009 4.66669 5.65348 4.66669 5.93868 4.52139C6.18922 4.39349 6.39349 4.18922 6.52139 3.93868C6.66667 3.65348 6.66667 3.28012 6.66667 2.5334V2.00003" stroke="currentColor" stroke-width="1.25" stroke-linecap="round" stroke-linejoin="round"></path></svg>
