<svg width="16" height="16" viewBox="0 0 16 16" fill="none" xmlns="http://www.w3.org/2000/svg"><path d="M12 10.6667L14 12.6667M14 12.6667L12 14.6667M14 12.6667L2 12.6667M3.06667 2H5.6C5.97337 2 6.16005 2 6.30266 2.07266C6.4281 2.13658 6.53009 2.23856 6.594 2.36401C6.66667 2.50661 6.66667 2.6933 6.66667 3.06667V5.6C6.66667 5.97337 6.66667 6.16005 6.594 6.30266C6.53009 6.4281 6.4281 6.53009 6.30266 6.594C6.16005 6.66667 5.97337 6.66667 5.6 6.66667H3.06667C2.6933 6.66667 2.50661 6.66667 2.36401 6.594C2.23856 6.53009 2.13658 6.4281 2.07266 6.30266C2 6.16005 2 5.97337 2 5.6V3.06667C2 2.6933 2 2.50661 2.07266 2.36401C2.13658 2.23856 2.23856 2.13658 2.36401 2.07266C2.50661 2 2.6933 2 3.06667 2ZM10.4 2H12.9333C13.3067 2 13.4934 2 13.636 2.07266C13.7614 2.13658 13.8634 2.23856 13.9273 2.36401C14 2.50661 14 2.6933 14 3.06667V5.6C14 5.97337 14 6.16005 13.9273 6.30266C13.8634 6.4281 13.7614 6.53009 13.636 6.594C13.4934 6.66667 13.3067 6.66667 12.9333 6.66667H10.4C10.0266 6.66667 9.83995 6.66667 9.69734 6.594C9.5719 6.53009 9.46991 6.4281 9.406 6.30266C9.33333 6.16005 9.33333 5.97337 9.33333 5.6V3.06667C9.33333 2.6933 9.33333 2.50661 9.406 2.36401C9.46991 2.23856 9.5719 2.13658 9.69734 2.07266C9.83995 2 10.0266 2 10.4 2Z" stroke="currentColor" stroke-width="1.25" stroke-linecap="round" stroke-linejoin="round"></path></svg>
