<svg width="16" height="16" viewBox="0 0 16 16" fill="none" xmlns="http://www.w3.org/2000/svg" class="size-4"><path d="M1.3335 6.00008L2.26683 6.00008C2.6402 6.00008 2.82688 6.00008 2.96949 6.07274C3.09493 6.13666 3.19692 6.23865 3.26083 6.36409C3.3335 6.5067 3.3335 6.69338 3.3335 7.06675L3.3335 8.93342C3.3335 9.30678 3.3335 9.49347 3.26083 9.63608C3.19692 9.76152 3.09493 9.8635 2.96949 9.92742C2.82688 10.0001 2.6402 10.0001 2.26683 10.0001L1.3335 10.0001M14.6668 10.5334L14.6668 5.46675C14.6668 4.72001 14.6668 4.34664 14.5215 4.06143C14.3937 3.81055 14.1897 3.60657 13.9388 3.47874C13.6536 3.33342 13.2802 3.33342 12.5335 3.33342L3.46683 3.33342C2.72009 3.33342 2.34672 3.33342 2.06151 3.47874C1.81063 3.60657 1.60665 3.81055 1.47882 4.06143C1.3335 4.34664 1.3335 4.72001 1.3335 5.46675L1.3335 10.5334C1.3335 11.2802 1.3335 11.6535 1.47882 11.9387C1.60665 12.1896 1.81063 12.3936 2.06151 12.5214C2.34672 12.6667 2.72009 12.6667 3.46683 12.6667L12.5335 12.6667C13.2802 12.6667 13.6536 12.6667 13.9388 12.5214C14.1897 12.3936 14.3937 12.1896 14.5215 11.9387C14.6668 11.6535 14.6668 11.2802 14.6668 10.5334Z" stroke="currentColor" stroke-width="1.25" stroke-linecap="round" stroke-linejoin="round"></path></svg>