<svg width="16" height="16" viewBox="0 0 16 16" fill="none" xmlns="http://www.w3.org/2000/svg"><g clip-path="url(#clip0_459_404)"><path d="M4.66659 6.33334L1.33325 8L7.7614 11.2141C7.84886 11.2578 7.89259 11.2797 7.93845 11.2883C7.97908 11.2959 8.02076 11.2959 8.06138 11.2883C8.10725 11.2797 8.15098 11.2578 8.23843 11.2141L14.6666 8L11.3333 6.33334M4.66659 9.66667L1.33325 11.3333L7.7614 14.5474C7.84886 14.5911 7.89259 14.613 7.93845 14.6216C7.97908 14.6292 8.02076 14.6292 8.06138 14.6216C8.10725 14.613 8.15098 14.5911 8.23843 14.5474L14.6666 11.3333L11.3333 9.66667M1.33325 4.66667L7.7614 1.45259C7.84886 1.40887 7.89259 1.387 7.93845 1.3784C7.97907 1.37078 8.02076 1.37078 8.06138 1.3784C8.10725 1.387 8.15098 1.40887 8.23843 1.45259L14.6666 4.66667L8.23843 7.88075C8.15098 7.92447 8.10725 7.94634 8.06138 7.95494C8.02076 7.96256 7.97907 7.96256 7.93845 7.95494C7.89259 7.94634 7.84886 7.92447 7.7614 7.88075L1.33325 4.66667Z" stroke="currentColor" stroke-width="1.25" stroke-linecap="round" stroke-linejoin="round"></path></g><defs><clipPath id="clip0_459_404"><rect width="16" height="16" fill="white"></rect></clipPath></defs></svg>