<svg width="20" height="20" viewBox="0 0 24 24" fill="none" xmlns="http://www.w3.org/2000/svg"><path d="M6.54583 4.89106L6.94308 4.11143H6.94307L6.54583 4.89106ZM6.10882 4.45404L6.88845 4.0568V4.0568L6.10882 4.45404ZM11.8908 4.45404L11.1112 4.0568L11.1112 4.0568L11.8908 4.45404ZM11.4538 4.89106L11.0566 4.11143L11.0566 4.11143L11.4538 4.89106ZM5.5999 2L5.60001 1.125H5.5999V2ZM6.54583 22.875C7.02908 22.875 7.42083 22.4832 7.42083 22C7.42083 21.5168 7.02908 21.125 6.54583 21.125V22V22.875ZM3.49192 21.782L3.09468 22.5616H3.09468L3.49192 21.782ZM2.61789 20.908L1.83826 21.3052L1.83826 21.3052L2.61789 20.908ZM14.9078 2.21804L15.305 1.43841V1.43841L14.9078 2.21804ZM15.7818 3.09207L15.0022 3.48931V3.48931L15.7818 3.09207ZM3.49192 2.21799L3.88916 2.99762H3.88916L3.49192 2.21799ZM2.61789 3.09202L3.39752 3.48926H3.39752L2.61789 3.09202ZM15.1248 8.25012C15.1248 8.73337 15.5166 9.12512 15.9998 9.12512C16.4831 9.12512 16.8748 8.73337 16.8748 8.25012H15.9998H15.1248ZM21.2436 7.25633C20.9019 6.91462 20.3479 6.91462 20.0062 7.25633C19.6645 7.59804 19.6645 8.15206 20.0062 8.49377L20.6249 7.87505L21.2436 7.25633ZM22.4999 9.75005L23.1186 10.3688C23.2827 10.2047 23.3749 9.98211 23.3749 9.75005C23.3749 9.51799 23.2827 9.29543 23.1186 9.13133L22.4999 9.75005ZM20.0062 11.0063C19.6645 11.348 19.6645 11.9021 20.0062 12.2438C20.3479 12.5855 20.9019 12.5855 21.2436 12.2438L20.6249 11.625L20.0062 11.0063ZM11.9998 2.00005H11.1248V3.40005H11.9998H12.8748V2.00005H11.9998ZM10.3998 5.00005V4.12505H7.59982V5.00005V5.87505H10.3998V5.00005ZM5.99982 3.40005H6.87482V2.00005H5.99982H5.12482V3.40005H5.99982ZM7.59982 5.00005V4.12505C7.30536 4.12505 7.13713 4.12437 7.01428 4.11433C6.90164 4.10513 6.90612 4.0926 6.94308 4.11143L6.54583 4.89106L6.14859 5.67069C6.39946 5.79851 6.65091 5.84048 6.87177 5.85852C7.08242 5.87573 7.33424 5.87505 7.59982 5.87505V5.00005ZM5.99982 3.40005H5.12482C5.12482 3.66564 5.12414 3.91745 5.14135 4.1281C5.1594 4.34896 5.20136 4.60042 5.32919 4.85128L6.10882 4.45404L6.88845 4.0568C6.90728 4.09375 6.89474 4.09824 6.88554 3.9856C6.8755 3.86274 6.87482 3.69451 6.87482 3.40005H5.99982ZM6.54583 4.89106L6.94307 4.11143C6.91955 4.09944 6.90043 4.08032 6.88845 4.0568L6.10882 4.45404L5.32919 4.85128C5.50895 5.20409 5.79579 5.49093 6.14859 5.67069L6.54583 4.89106ZM11.9998 3.40005H11.1248C11.1248 3.69452 11.1241 3.86274 11.1141 3.9856C11.1049 4.09824 11.0924 4.09375 11.1112 4.0568L11.8908 4.45404L12.6705 4.85128C12.7983 4.60042 12.8402 4.34896 12.8583 4.1281C12.8755 3.91745 12.8748 3.66564 12.8748 3.40005H11.9998ZM10.3998 5.00005V5.87505C10.6654 5.87505 10.9172 5.87573 11.1279 5.85852C11.3487 5.84048 11.6002 5.79851 11.8511 5.67069L11.4538 4.89106L11.0566 4.11143C11.0935 4.0926 11.098 4.10513 10.9854 4.11433C10.8625 4.12437 10.6943 4.12505 10.3998 4.12505V5.00005ZM11.8908 4.45404L11.1112 4.0568C11.0992 4.08032 11.0801 4.09944 11.0566 4.11143L11.4538 4.89106L11.8511 5.67069C12.2039 5.49093 12.4907 5.20409 12.6705 4.85128L11.8908 4.45404ZM5.5999 2L5.59979 2.875L5.99971 2.87505L5.99982 2.00005L5.99993 1.12505L5.60001 1.125L5.5999 2ZM5.99982 2.00005V2.87505H11.9998V2.00005V1.12505H5.99982V2.00005ZM11.9998 2.00005V2.87505H12.7998V2.00005V1.12505H11.9998V2.00005ZM2.3999 18.8H3.2749V5.2H2.3999H1.5249V18.8H2.3999ZM6.54583 22V21.125C5.9809 21.125 5.34624 21.1248 4.80105 21.0987C4.52827 21.0857 4.29467 21.0669 4.11344 21.0415C3.9037 21.0121 3.85598 20.9855 3.88916 21.0024L3.49192 21.782L3.09468 22.5616C3.34177 22.6875 3.64274 22.7426 3.87069 22.7746C4.12716 22.8105 4.42028 22.8325 4.71749 22.8468C5.31228 22.8752 5.99066 22.875 6.54583 22.875V22ZM2.3999 18.8H1.5249C1.5249 19.3456 1.52422 19.8074 1.55506 20.1848C1.58673 20.5725 1.65594 20.9474 1.83826 21.3052L2.61789 20.908L3.39752 20.5107C3.36185 20.4407 3.32207 20.3217 3.29924 20.0423C3.27558 19.7527 3.2749 19.3745 3.2749 18.8H2.3999ZM3.49192 21.782L3.88916 21.0024C3.67748 20.8945 3.50538 20.7224 3.39752 20.5107L2.61789 20.908L1.83826 21.3052C2.1139 21.8462 2.55371 22.286 3.09468 22.5616L3.49192 21.782ZM12.7998 2.00005V2.87505C13.3743 2.87505 13.7526 2.87573 14.0422 2.89939C14.3216 2.92222 14.4406 2.962 14.5106 2.99767L14.9078 2.21804L15.305 1.43841C14.9472 1.25609 14.5723 1.18687 14.1847 1.15521C13.8073 1.12437 13.3454 1.12505 12.7998 1.12505V2.00005ZM15.9998 5.20005H16.8748C16.8748 4.65444 16.8755 4.1926 16.8447 3.8152C16.813 3.42759 16.7438 3.05265 16.5615 2.69483L15.7818 3.09207L15.0022 3.48931C15.0379 3.55931 15.0777 3.67831 15.1005 3.95771C15.1241 4.24732 15.1248 4.62556 15.1248 5.20005H15.9998ZM14.9078 2.21804L14.5106 2.99767C14.7222 3.10553 14.8944 3.27763 15.0022 3.48931L15.7818 3.09207L16.5615 2.69483C16.2858 2.15386 15.846 1.71404 15.305 1.43841L14.9078 2.21804ZM5.5999 2V1.125C5.05429 1.125 4.59245 1.12432 4.21505 1.15515C3.82744 1.18682 3.4525 1.25604 3.09468 1.43836L3.49192 2.21799L3.88916 2.99762C3.95917 2.96195 4.07817 2.92217 4.35756 2.89934C4.64717 2.87568 5.02541 2.875 5.5999 2.875V2ZM2.3999 5.2H3.2749C3.2749 4.62551 3.27558 4.24726 3.29924 3.95766C3.32207 3.67826 3.36185 3.55926 3.39752 3.48926L2.61789 3.09202L1.83826 2.69478C1.65594 3.0526 1.58673 3.42754 1.55506 3.81515C1.52422 4.19255 1.5249 4.65439 1.5249 5.2H2.3999ZM3.49192 2.21799L3.09468 1.43836C2.55371 1.71399 2.11389 2.15381 1.83826 2.69478L2.61789 3.09202L3.39752 3.48926C3.50538 3.27758 3.67748 3.10548 3.88916 2.99762L3.49192 2.21799ZM15.9998 5.20005H15.1248V8.25012H15.9998H16.8748V5.20005H15.9998ZM13.1249 20.25H12.2499C12.2499 20.8023 11.8022 21.25 11.2499 21.25V22.125V23C12.7687 23 13.9999 21.7688 13.9999 20.25H13.1249ZM11.2499 22.125V21.25C10.6976 21.25 10.2499 20.8023 10.2499 20.25H9.37492H8.49992C8.49992 21.7688 9.73114 23 11.2499 23V22.125ZM9.37492 20.25H10.2499C10.2499 19.6978 10.6976 19.25 11.2499 19.25V18.375V17.5C9.73114 17.5 8.49992 18.7313 8.49992 20.25H9.37492ZM11.2499 18.375V19.25C11.8022 19.25 12.2499 19.6978 12.2499 20.25H13.1249H13.9999C13.9999 18.7313 12.7687 17.5 11.2499 17.5V18.375ZM20.6249 7.87505L20.0062 8.49377L21.8812 10.3688L22.4999 9.75005L23.1186 9.13133L21.2436 7.25633L20.6249 7.87505ZM22.4999 9.75005L21.8812 9.13133L20.0062 11.0063L20.6249 11.625L21.2436 12.2438L23.1186 10.3688L22.4999 9.75005ZM13.1249 20.25V21.125C14.1196 21.125 14.952 20.942 15.6291 20.5618C16.3166 20.1757 16.7802 19.6218 17.087 18.9932C17.666 17.8071 17.7046 16.2843 17.7494 15.0313C17.7984 13.6593 17.8535 12.5571 18.2355 11.7745C18.4091 11.4187 18.6428 11.1522 18.9777 10.9641C19.3231 10.7702 19.8384 10.625 20.6249 10.625V9.75005V8.87505C19.6302 8.87505 18.7978 9.05806 18.1208 9.4383C17.4332 9.82443 16.9696 10.3783 16.6628 11.0069C16.0839 12.193 16.0452 13.7158 16.0005 14.9688C15.9515 16.3408 15.8964 17.443 15.5144 18.2256C15.3407 18.5814 15.1071 18.8479 14.7721 19.036C14.4267 19.2299 13.9115 19.375 13.1249 19.375V20.25ZM20.6249 9.75005V10.625H22.4999V9.75005V8.87505H20.6249V9.75005Z" fill="currentColor"></path></svg>
