<svg width="16" height="16" viewBox="0 0 16 16" fill="none" xmlns="http://www.w3.org/2000/svg" stroke-width="2.5"><path d="M2 6V4.13333C2 3.3866 2 3.01323 2.14532 2.72801C2.27316 2.47747 2.47747 2.27316 2.72801 2.14532C3.01323 2 3.3866 2 4.13333 2H6M2 10V11.8667C2 12.6134 2 12.9868 2.14532 13.272C2.27316 13.5225 2.47747 13.7268 2.72801 13.8547C3.01323 14 3.3866 14 4.13333 14H6M10 2H11.8667C12.6134 2 12.9868 2 13.272 2.14532C13.5225 2.27316 13.7268 2.47747 13.8547 2.72801C14 3.01323 14 3.3866 14 4.13333V6M10 14H11.8667C12.6134 14 12.9868 14 13.272 13.8547C13.5225 13.7268 13.7268 13.5225 13.8547 13.272C14 12.9868 14 12.6134 14 11.8667V10" stroke="currentColor" stroke-width="1.25" stroke-linecap="round" stroke-linejoin="round"></path></svg>
