<svg width="16" height="16" viewBox="0 0 16 16" fill="none" xmlns="http://www.w3.org/2000/svg" class="size-4"><path d="M4.06126 14.5213L4.34501 13.9644L4.34501 13.9644L4.06126 14.5213ZM3.47858 13.9386L2.9217 14.2224H2.9217L3.47858 13.9386ZM12.5213 13.9386L13.0781 14.2224V14.2224L12.5213 13.9386ZM11.9386 14.5213L11.6548 13.9644L11.6548 13.9644L11.9386 14.5213ZM11.9386 1.47864L12.2223 0.921759V0.921759L11.9386 1.47864ZM12.5213 2.06133L13.0781 1.77758V1.77758L12.5213 2.06133ZM4.06126 1.47864L4.34501 2.03552L4.34501 2.03552L4.06126 1.47864ZM3.47858 2.06133L4.03546 2.34507L3.47858 2.06133ZM5.59992 11.375C5.25474 11.375 4.97492 11.6548 4.97492 12C4.97492 12.3452 5.25474 12.625 5.59992 12.625V12V11.375ZM10.3999 12.625C10.7451 12.625 11.0249 12.3452 11.0249 12C11.0249 11.6548 10.7451 11.375 10.3999 11.375V12V12.625ZM5.46659 1.33331V1.95831H10.5333V1.33331V0.708313H5.46659V1.33331ZM12.6666 3.46665H12.0416V12.5333H12.6666H13.2916V3.46665H12.6666ZM10.5333 14.6666V14.0416H5.46659V14.6666V15.2916H10.5333V14.6666ZM3.33325 12.5333H3.95825V3.46665H3.33325H2.70825V12.5333H3.33325ZM5.46659 14.6666V14.0416C5.0829 14.0416 4.83273 14.0412 4.64175 14.0256C4.45806 14.0105 4.38482 13.9847 4.34501 13.9644L4.06126 14.5213L3.77752 15.0782C4.02292 15.2032 4.27897 15.2501 4.53996 15.2714C4.79365 15.2921 5.10353 15.2916 5.46659 15.2916V14.6666ZM3.33325 12.5333H2.70825C2.70825 12.8964 2.70777 13.2062 2.72849 13.4599C2.74982 13.7209 2.79666 13.977 2.9217 14.2224L3.47858 13.9386L4.03546 13.6549C4.01517 13.6151 3.98935 13.5418 3.97434 13.3581C3.95874 13.1672 3.95825 12.917 3.95825 12.5333H3.33325ZM4.06126 14.5213L4.34501 13.9644C4.21173 13.8965 4.10337 13.7882 4.03546 13.6549L3.47858 13.9386L2.9217 14.2224C3.10945 14.5909 3.40904 14.8905 3.77752 15.0782L4.06126 14.5213ZM12.6666 12.5333H12.0416C12.0416 12.917 12.0411 13.1672 12.0255 13.3581C12.0105 13.5418 11.9847 13.6151 11.9644 13.6549L12.5213 13.9386L13.0781 14.2224C13.2032 13.977 13.25 13.7209 13.2713 13.4599C13.2921 13.2062 13.2916 12.8964 13.2916 12.5333H12.6666ZM10.5333 14.6666V15.2916C10.8963 15.2916 11.2062 15.2921 11.4599 15.2714C11.7209 15.2501 11.9769 15.2032 12.2223 15.0782L11.9386 14.5213L11.6548 13.9644C11.615 13.9847 11.5418 14.0105 11.3581 14.0256C11.1671 14.0412 10.9169 14.0416 10.5333 14.0416V14.6666ZM12.5213 13.9386L11.9644 13.6549C11.8965 13.7882 11.7881 13.8965 11.6548 13.9644L11.9386 14.5213L12.2223 15.0782C12.5908 14.8905 12.8904 14.5909 13.0781 14.2224L12.5213 13.9386ZM10.5333 1.33331V1.95831C10.9169 1.95831 11.1671 1.9588 11.3581 1.9744C11.5418 1.98941 11.615 2.01523 11.6548 2.03552L11.9386 1.47864L12.2223 0.921759C11.9769 0.796721 11.7209 0.749878 11.4599 0.728554C11.2062 0.707827 10.8963 0.708313 10.5333 0.708313V1.33331ZM12.6666 3.46665H13.2916C13.2916 3.10359 13.2921 2.79371 13.2713 2.54002C13.25 2.27903 13.2032 2.02298 13.0781 1.77758L12.5213 2.06133L11.9644 2.34507C11.9847 2.38489 12.0105 2.45813 12.0255 2.64181C12.0411 2.83279 12.0416 3.08297 12.0416 3.46665H12.6666ZM11.9386 1.47864L11.6548 2.03552C11.7881 2.10343 11.8965 2.21179 11.9644 2.34507L12.5213 2.06133L13.0781 1.77758C12.8904 1.4091 12.5908 1.10951 12.2223 0.921759L11.9386 1.47864ZM5.46659 1.33331V0.708313C5.10353 0.708313 4.79365 0.707827 4.53996 0.728554C4.27897 0.749878 4.02292 0.796721 3.77752 0.921759L4.06126 1.47864L4.34501 2.03552C4.38482 2.01523 4.45806 1.98941 4.64175 1.9744C4.83273 1.9588 5.0829 1.95831 5.46659 1.95831V1.33331ZM3.33325 3.46665H3.95825C3.95825 3.08297 3.95874 2.83279 3.97434 2.64181C3.98935 2.45812 4.01517 2.38489 4.03546 2.34507L3.47858 2.06133L2.9217 1.77758C2.79666 2.02298 2.74982 2.27903 2.72849 2.54002C2.70777 2.79371 2.70825 3.10359 2.70825 3.46665H3.33325ZM4.06126 1.47864L3.77752 0.921759C3.40904 1.10951 3.10945 1.4091 2.9217 1.77758L3.47858 2.06133L4.03546 2.34507C4.10337 2.21179 4.21173 2.10343 4.34501 2.03552L4.06126 1.47864ZM5.59992 12V12.625H10.3999V12V11.375H5.59992V12Z" fill="currentColor"></path></svg>