<svg width="16" height="16" viewBox="0 0 16 16" fill="none" xmlns="http://www.w3.org/2000/svg"><path d="M2.42527 13.782L2.14153 14.3389L2.42527 13.782ZM1.55124 12.908L0.99436 13.1917L1.55124 12.908ZM14.4486 12.908L15.0055 13.1917L14.4486 12.908ZM13.5746 13.782L13.8583 14.3389L13.5746 13.782ZM13.5746 2.21799L13.8583 1.66111L13.5746 2.21799ZM14.4486 3.09202L15.0055 2.80827L14.4486 3.09202ZM2.42527 2.21799L2.14153 1.66111L2.42527 2.21799ZM1.55124 3.09202L0.99436 2.80828L1.55124 3.09202ZM11.1249 4.5C11.1249 4.15482 10.8451 3.875 10.4999 3.875C10.1548 3.875 9.87494 4.15482 9.87494 4.5H10.4999H11.1249ZM7.99994 7V7.625V7ZM6.12494 4.5C6.12494 4.15482 5.84512 3.875 5.49994 3.875C5.15476 3.875 4.87494 4.15482 4.87494 4.5H5.49994H6.12494ZM4.53325 2V2.625H11.4666V2V1.375H4.53325V2ZM14.6666 5.2H14.0416V10.8H14.6666H15.2916V5.2H14.6666ZM11.4666 14V13.375H4.53325V14V14.625H11.4666V14ZM1.33325 10.8H1.95825V5.2H1.33325H0.708252V10.8H1.33325ZM4.53325 14V13.375C3.96289 13.375 3.5727 13.3745 3.27055 13.3498C2.9757 13.3257 2.82013 13.2818 2.70901 13.2251L2.42527 13.782L2.14153 14.3389C2.45823 14.5003 2.79661 14.5653 3.16876 14.5957C3.53362 14.6255 3.98351 14.625 4.53325 14.625V14ZM1.33325 10.8H0.708252C0.708252 11.3497 0.707766 11.7996 0.737576 12.1645C0.767982 12.5366 0.832991 12.875 0.99436 13.1917L1.55124 12.908L2.10812 12.6242C2.0515 12.5131 2.00752 12.3576 1.98342 12.0627C1.95874 11.7606 1.95825 11.3704 1.95825 10.8H1.33325ZM2.42527 13.782L2.70901 13.2251C2.45029 13.0933 2.23994 12.883 2.10812 12.6242L1.55124 12.908L0.99436 13.1917C1.24603 13.6856 1.6476 14.0872 2.14153 14.3389L2.42527 13.782ZM14.6666 10.8H14.0416C14.0416 11.3704 14.0411 11.7606 14.0164 12.0627C13.9923 12.3576 13.9483 12.5131 13.8917 12.6242L14.4486 12.908L15.0055 13.1917C15.1668 12.875 15.2319 12.5366 15.2623 12.1645C15.2921 11.7996 15.2916 11.3497 15.2916 10.8H14.6666ZM11.4666 14V14.625C12.0163 14.625 12.4662 14.6255 12.8311 14.5957C13.2032 14.5653 13.5416 14.5003 13.8583 14.3389L13.5746 13.782L13.2908 13.2251C13.1797 13.2818 13.0241 13.3257 12.7293 13.3498C12.4271 13.3745 12.0369 13.375 11.4666 13.375V14ZM14.4486 12.908L13.8917 12.6242C13.7599 12.883 13.5495 13.0933 13.2908 13.2251L13.5746 13.782L13.8583 14.3389C14.3522 14.0872 14.7538 13.6857 15.0055 13.1917L14.4486 12.908ZM11.4666 2V2.625C12.0369 2.625 12.4271 2.62549 12.7293 2.65017C13.0241 2.67426 13.1797 2.71825 13.2908 2.77487L13.5746 2.21799L13.8583 1.66111C13.5416 1.49974 13.2032 1.43473 12.8311 1.40432C12.4662 1.37451 12.0163 1.375 11.4666 1.375V2ZM14.6666 5.2H15.2916C15.2916 4.65026 15.2921 4.20037 15.2623 3.83551C15.2319 3.46335 15.1668 3.12498 15.0055 2.80828L14.4486 3.09202L13.8917 3.37576C13.9483 3.48688 13.9923 3.64245 14.0164 3.9373C14.0411 4.23945 14.0416 4.62963 14.0416 5.2H14.6666ZM13.5746 2.21799L13.2908 2.77487C13.5495 2.90669 13.7599 3.11704 13.8917 3.37576L14.4486 3.09202L15.0055 2.80827C14.7538 2.31435 14.3522 1.91277 13.8583 1.66111L13.5746 2.21799ZM4.53325 2V1.375C3.98351 1.375 3.53362 1.37451 3.16876 1.40432C2.79661 1.43473 2.45823 1.49974 2.14153 1.66111L2.42527 2.21799L2.70901 2.77487C2.82013 2.71825 2.9757 2.67426 3.27055 2.65017C3.5727 2.62549 3.96289 2.625 4.53325 2.625V2ZM1.33325 5.2H1.95825C1.95825 4.62963 1.95874 4.23945 1.98342 3.9373C2.00752 3.64245 2.0515 3.48688 2.10812 3.37576L1.55124 3.09202L0.99436 2.80828C0.832991 3.12498 0.767982 3.46335 0.737576 3.83551C0.707766 4.20037 0.708252 4.65026 0.708252 5.2H1.33325ZM2.42527 2.21799L2.14153 1.66111C1.6476 1.91278 1.24603 2.31435 0.99436 2.80827L1.55124 3.09202L2.10812 3.37576C2.23994 3.11704 2.45029 2.90669 2.70901 2.77487L2.42527 2.21799ZM10.4999 4.5H9.87494C9.87494 4.99728 9.6774 5.47419 9.32577 5.82583L9.76771 6.26777L10.2097 6.70971C10.7957 6.12366 11.1249 5.3288 11.1249 4.5H10.4999ZM9.76771 6.26777L9.32577 5.82583C8.97414 6.17746 8.49722 6.375 7.99994 6.375V7V7.625C8.82874 7.625 9.6236 7.29576 10.2097 6.70971L9.76771 6.26777ZM7.99994 7V6.375C7.50266 6.375 7.02575 6.17746 6.67412 5.82583L6.23218 6.26777L5.79023 6.70971C6.37629 7.29576 7.17114 7.625 7.99994 7.625V7ZM6.23218 6.26777L6.67412 5.82583C6.32249 5.47419 6.12494 4.99728 6.12494 4.5H5.49994H4.87494C4.87494 5.3288 5.20418 6.12366 5.79023 6.70971L6.23218 6.26777Z" fill="currentColor"></path></svg>