<svg width="16" height="16" viewBox="0 0 16 16" fill="none" xmlns="http://www.w3.org/2000/svg">
<path d="M7.99992 14.6667C11.6818 14.6667 14.6666 11.6819 14.6666 8.00004C14.6666 4.31814 11.6818 1.33337 7.99992 1.33337C4.31802 1.33337 1.33325 4.31814 1.33325 8.00004C1.33325 11.6819 4.31802 14.6667 7.99992 14.6667Z" stroke="currentColor" stroke-width="1.25" stroke-linecap="round" stroke-linejoin="round"/>
<path d="M5.33325 6.40004C5.33325 6.02667 5.33325 5.83999 5.40591 5.69738C5.46983 5.57194 5.57182 5.46995 5.69726 5.40604C5.83987 5.33337 6.02655 5.33337 6.39992 5.33337H9.59992C9.97329 5.33337 10.16 5.33337 10.3026 5.40604C10.428 5.46995 10.53 5.57194 10.5939 5.69738C10.6666 5.83999 10.6666 6.02667 10.6666 6.40004V9.60004C10.6666 9.97341 10.6666 10.1601 10.5939 10.3027C10.53 10.4281 10.428 10.5301 10.3026 10.594C10.16 10.6667 9.97329 10.6667 9.59992 10.6667H6.39992C6.02655 10.6667 5.83987 10.6667 5.69726 10.594C5.57182 10.5301 5.46983 10.4281 5.40591 10.3027C5.33325 10.1601 5.33325 9.97341 5.33325 9.60004V6.40004Z" stroke="currentColor" stroke-width="1.25" stroke-linecap="round" stroke-linejoin="round"/>
</svg>
