<svg width="16" height="16" viewBox="0 0 16 16" fill="none" xmlns="http://www.w3.org/2000/svg"><path d="M3.37028 2.70004L3.41387 3.32352L3.37028 2.70004ZM7.5072 2.41076L7.4636 1.78729L7.5072 2.41076ZM9.383 4.20428L8.75952 4.24788V4.24788L9.383 4.20428ZM9.95221 12.3444L10.5757 12.3008V12.3008L9.95221 12.3444ZM8.34428 14.3815L8.38788 15.005L8.34428 14.3815ZM4.20735 14.6708L4.16376 14.0473V14.0473L4.20735 14.6708ZM2.33156 12.8773L1.70808 12.9209L2.33156 12.8773ZM1.76235 4.73717L2.38582 4.69357L1.76235 4.73717ZM3.05079 14.6206L3.3175 14.0553L3.3175 14.0553L3.05079 14.6206ZM2.53844 14.1307L3.08581 13.829H3.08581L2.53844 14.1307ZM9.92178 13.6144L10.5058 13.837V13.837L9.92178 13.6144ZM9.4826 14.1708L9.13982 13.6482L9.13982 13.6482L9.4826 14.1708ZM8.66377 2.461L8.39706 3.02624L8.39706 3.02624L8.66377 2.461ZM9.17611 2.95087L9.72348 2.64918V2.64918L9.17611 2.95087ZM2.23196 2.91076L2.57474 3.43337H2.57474L2.23196 2.91076ZM1.79278 3.46717L1.20875 3.24459L1.79278 3.46717ZM8.49274 1.32803L8.44914 1.9515L8.49274 1.32803ZM12.6297 1.61731L12.6733 0.99383L12.6297 1.61731ZM14.2376 3.65443L14.8611 3.69803V3.69803L14.2376 3.65443ZM13.6684 11.7946L13.0449 11.751L13.6684 11.7946ZM13.4615 13.048L14.0089 13.3497V13.3497L13.4615 13.048ZM11.7926 13.5881L11.8362 12.9646H11.8362L11.7926 13.5881ZM12.9491 13.5378L12.6824 12.9726H12.6824L12.9491 13.5378ZM13.768 1.82802L14.1108 1.3054V1.3054L13.768 1.82802ZM14.2072 2.38443L14.7912 2.16185V2.16185L14.2072 2.38443ZM7.33617 1.37826L7.06946 0.813026V0.813026L7.33617 1.37826ZM6.82383 1.86814L6.27646 1.56645V1.56645L6.82383 1.86814ZM6.06042 2.30327C6.0156 2.64552 6.25671 2.95931 6.59897 3.00414C6.94123 3.04896 7.25501 2.80784 7.29984 2.46559L6.68013 2.38443L6.06042 2.30327ZM10.1296 12.8453C9.78529 12.8212 9.48663 13.0808 9.46256 13.4251C9.43848 13.7695 9.6981 14.0681 10.0424 14.0922L10.086 13.4687L10.1296 12.8453ZM3.37028 2.70004L3.41387 3.32352L7.5508 3.03424L7.5072 2.41076L7.4636 1.78729L3.32668 2.07657L3.37028 2.70004ZM9.383 4.20428L8.75952 4.24788L9.32873 12.388L9.95221 12.3444L10.5757 12.3008L10.0065 4.16069L9.383 4.20428ZM8.34428 14.3815L8.30068 13.7581L4.16376 14.0473L4.20735 14.6708L4.25095 15.2943L8.38788 15.005L8.34428 14.3815ZM2.33156 12.8773L2.95504 12.8337L2.38582 4.69357L1.76235 4.73717L1.13887 4.78077L1.70808 12.9209L2.33156 12.8773ZM4.20735 14.6708L4.16376 14.0473C3.84761 14.0694 3.65166 14.0826 3.50355 14.0796C3.36472 14.0769 3.32678 14.0597 3.3175 14.0553L3.05079 14.6206L2.78408 15.1858C3.0168 15.2956 3.25229 15.3249 3.47882 15.3294C3.69607 15.3337 3.9574 15.3148 4.25095 15.2943L4.20735 14.6708ZM2.33156 12.8773L1.70808 12.9209C1.73087 13.2467 1.74994 13.5253 1.78284 13.7522C1.81656 13.9848 1.871 14.2145 1.99108 14.4324L2.53844 14.1307L3.08581 13.829C3.06932 13.7991 3.04376 13.7374 3.0199 13.5728C2.99522 13.4026 2.97913 13.1783 2.95504 12.8337L2.33156 12.8773ZM3.05079 14.6206L3.3175 14.0553C3.23062 14.0143 3.14631 13.9388 3.08581 13.829L2.53844 14.1307L1.99108 14.4324C2.17083 14.7585 2.44522 15.0259 2.78408 15.1858L3.05079 14.6206ZM9.95221 12.3444L9.32873 12.388C9.35283 12.7326 9.36811 12.9569 9.36736 13.129C9.36664 13.2952 9.34992 13.3599 9.33775 13.3918L9.92178 13.6144L10.5058 13.837C10.5944 13.6045 10.6163 13.3694 10.6173 13.1344C10.6183 12.9051 10.5985 12.6267 10.5757 12.3008L9.95221 12.3444ZM8.34428 14.3815L8.38788 15.005C8.68143 14.9845 8.94284 14.9668 9.15738 14.9323C9.38108 14.8963 9.6102 14.8346 9.82538 14.6934L9.4826 14.1708L9.13982 13.6482C9.13124 13.6538 9.09606 13.6761 8.95896 13.6981C8.8127 13.7217 8.61683 13.7359 8.30068 13.7581L8.34428 14.3815ZM9.92178 13.6144L9.33775 13.3918C9.29312 13.509 9.22014 13.5955 9.13982 13.6482L9.4826 14.1708L9.82537 14.6934C10.1387 14.4879 10.3732 14.185 10.5058 13.837L9.92178 13.6144ZM7.5072 2.41076L7.5508 3.03424C7.86695 3.01213 8.0629 2.99902 8.21101 3.00195C8.34983 3.0047 8.38777 3.02185 8.39706 3.02624L8.66377 2.461L8.93047 1.89576C8.69776 1.78596 8.46227 1.75668 8.23574 1.75219C8.01849 1.7479 7.75716 1.76676 7.4636 1.78729L7.5072 2.41076ZM9.383 4.20428L10.0065 4.16069C9.98369 3.83484 9.96461 3.55631 9.93172 3.32941C9.89799 3.09681 9.84355 2.86704 9.72348 2.64918L9.17611 2.95087L8.62875 3.25256C8.64523 3.28248 8.67079 3.3442 8.69465 3.50876C8.71934 3.67901 8.73542 3.9033 8.75952 4.24788L9.383 4.20428ZM8.66377 2.461L8.39706 3.02624C8.48393 3.06723 8.56825 3.1428 8.62875 3.25256L9.17611 2.95087L9.72348 2.64918C9.54372 2.32306 9.26934 2.05566 8.93047 1.89576L8.66377 2.461ZM3.37028 2.70004L3.32668 2.07657C3.03312 2.09709 2.77171 2.11479 2.55717 2.14928C2.33347 2.18524 2.10435 2.24701 1.88918 2.38814L2.23196 2.91076L2.57474 3.43337C2.58332 3.42774 2.6185 3.40547 2.7556 3.38343C2.90185 3.35991 3.09772 3.34563 3.41387 3.32352L3.37028 2.70004ZM1.76235 4.73717L2.38582 4.69357C2.36173 4.349 2.34644 4.12465 2.34719 3.95262C2.34792 3.78633 2.36464 3.72166 2.3768 3.68974L1.79278 3.46717L1.20875 3.24459C1.12016 3.47704 1.09823 3.71215 1.09721 3.94717C1.09621 4.17645 1.11608 4.45492 1.13887 4.78077L1.76235 4.73717ZM2.23196 2.91076L1.88918 2.38814C1.57587 2.59364 1.34136 2.89662 1.20875 3.24459L1.79278 3.46717L2.3768 3.68974C2.42143 3.57263 2.49441 3.48606 2.57474 3.43337L2.23196 2.91076ZM8.49274 1.32803L8.44914 1.9515L12.5861 2.24079L12.6297 1.61731L12.6733 0.99383L8.53633 0.704548L8.49274 1.32803ZM14.2376 3.65443L13.6141 3.61084L13.0449 11.751L13.6684 11.7946L14.2919 11.8382L14.8611 3.69803L14.2376 3.65443ZM13.6684 11.7946L13.0449 11.751C13.0208 12.0955 13.0047 12.3198 12.98 12.4901C12.9562 12.6546 12.9306 12.7164 12.9141 12.7463L13.4615 13.048L14.0089 13.3497C14.1289 13.1318 14.1834 12.902 14.2171 12.6694C14.25 12.4425 14.2691 12.164 14.2919 11.8382L13.6684 11.7946ZM11.7926 13.5881L11.749 14.2116C12.0425 14.2321 12.3039 14.2509 12.5211 14.2466C12.7476 14.2422 12.9831 14.2129 13.2159 14.1031L12.9491 13.5378L12.6824 12.9726C12.6732 12.977 12.6352 12.9941 12.4964 12.9969C12.3483 12.9998 12.1523 12.9867 11.8362 12.9646L11.7926 13.5881ZM13.4615 13.048L12.9141 12.7463C12.8536 12.856 12.7693 12.9316 12.6824 12.9726L12.9491 13.5378L13.2159 14.1031C13.5547 13.9432 13.8291 13.6758 14.0089 13.3497L13.4615 13.048ZM12.6297 1.61731L12.5861 2.24079C12.9022 2.26289 13.0981 2.27718 13.2443 2.30069C13.3814 2.32273 13.4166 2.345 13.4252 2.35063L13.768 1.82802L14.1108 1.3054C13.8956 1.16427 13.6665 1.10251 13.4428 1.06654C13.2282 1.03205 12.9668 1.01436 12.6733 0.99383L12.6297 1.61731ZM14.2376 3.65443L14.8611 3.69803C14.8839 3.37218 14.9037 3.09371 14.9027 2.86444C14.9017 2.62942 14.8798 2.3943 14.7912 2.16185L14.2072 2.38443L13.6231 2.607C13.6353 2.63892 13.652 2.7036 13.6527 2.86988C13.6535 3.04191 13.6382 3.26626 13.6141 3.61084L14.2376 3.65443ZM13.768 1.82802L13.4252 2.35063C13.5055 2.40332 13.5785 2.48989 13.6231 2.607L14.2072 2.38443L14.7912 2.16185C14.6586 1.81388 14.4241 1.5109 14.1108 1.3054L13.768 1.82802ZM8.49274 1.32803L8.53633 0.704548C8.24278 0.684021 7.98145 0.665158 7.7642 0.669457C7.53767 0.67394 7.30218 0.703218 7.06946 0.813026L7.33617 1.37826L7.60288 1.9435C7.61216 1.93912 7.6501 1.92196 7.78893 1.91921C7.93704 1.91628 8.13298 1.9294 8.44914 1.9515L8.49274 1.32803ZM7.33617 1.37826L7.06946 0.813026C6.7306 0.97292 6.45621 1.24032 6.27646 1.56645L6.82383 1.86814L7.37119 2.16982C7.43169 2.06006 7.516 1.98449 7.60288 1.9435L7.33617 1.37826ZM6.68013 2.38443L7.29984 2.46559C7.32526 2.27147 7.35306 2.20273 7.37119 2.16982L6.82383 1.86814L6.27646 1.56645C6.14724 1.80089 6.09354 2.05041 6.06042 2.30327L6.68013 2.38443ZM11.7926 13.5881L11.8362 12.9646L10.1296 12.8453L10.086 13.4687L10.0424 14.0922L11.749 14.2116L11.7926 13.5881Z" fill="currentColor"/></svg>
