<svg width="14" height="14" viewBox="0 0 14 14" fill="none" xmlns="http://www.w3.org/2000/svg"><path d="M3.95833 0.625H2.75833C2.0116 0.625 1.63823 0.625 1.35301 0.770325C1.10213 0.898156 0.898156 1.10213 0.770325 1.35301C0.625 1.63823 0.625 2.0116 0.625 2.75833V3.95833M3.95833 12.625H2.75833C2.0116 12.625 1.63823 12.625 1.35301 12.4797C1.10213 12.3518 0.898156 12.1479 0.770325 11.897C0.625 11.6118 0.625 11.2384 0.625 10.4917V9.29167M12.625 3.95833V2.75833C12.625 2.0116 12.625 1.63823 12.4797 1.35301C12.3518 1.10213 12.1479 0.898156 11.897 0.770325C11.6118 0.625 11.2384 0.625 10.4917 0.625H9.29167M12.625 9.29167V10.4917C12.625 11.2384 12.625 11.6118 12.4797 11.897C12.3518 12.1479 12.1479 12.3518 11.897 12.4797C11.6118 12.625 11.2384 12.625 10.4917 12.625H9.29167M9.95876 6.62499H3.2946M9.93213 3.94733H3.30778M7.27996 9.28016H3.2946" stroke="currentColor" stroke-width="1.25" stroke-linecap="round" stroke-linejoin="round"></path></svg>
