<svg width="16" height="16" viewBox="0 0 16 16" fill="none" xmlns="http://www.w3.org/2000/svg">
<path d="M11.3335 1.33331V8.66665M14.6669 6.53331V3.46665C14.6669 2.71991 14.6669 2.34654 14.5215 2.06133C14.3937 1.81044 14.1897 1.60647 13.9389 1.47864C13.6536 1.33331 13.2803 1.33331 12.5335 1.33331H5.41221C4.43788 1.33331 3.95072 1.33331 3.55725 1.5116C3.21046 1.66874 2.91573 1.92159 2.70769 2.24046C2.47164 2.60224 2.39757 3.08374 2.24942 4.04673L1.9007 6.3134C1.70529 7.58352 1.60759 8.21858 1.79607 8.71273C1.96149 9.14644 2.27263 9.50911 2.67615 9.73856C3.13589 9.99998 3.77842 9.99998 5.06349 9.99998H5.6002C5.97357 9.99998 6.16025 9.99998 6.30286 10.0726C6.4283 10.1366 6.53029 10.2385 6.5942 10.364C6.66686 10.5066 6.66686 10.6933 6.66686 11.0666V13.0228C6.66686 13.9306 7.40286 14.6666 8.31076 14.6666C8.52731 14.6666 8.72354 14.5391 8.81149 14.3412L11.052 9.3001C11.1539 9.07081 11.2049 8.95617 11.2854 8.8721C11.3566 8.7978 11.444 8.74098 11.5408 8.7061C11.6504 8.66665 11.7758 8.66665 12.0267 8.66665H12.5335C13.2803 8.66665 13.6536 8.66665 13.9389 8.52132C14.1897 8.39349 14.3937 8.18952 14.5215 7.93863C14.6669 7.65342 14.6669 7.28005 14.6669 6.53331Z" stroke="currentColor" stroke-width="1.25" stroke-linecap="round" stroke-linejoin="round"/>
</svg>
