<svg width="16" height="16" viewBox="0 0 16 16" fill="none" xmlns="http://www.w3.org/2000/svg"><path d="M10.3334 12.3333L12.3334 14.3333M12.3334 14.3333L14.3334 12.3333M12.3334 14.3333L12.3334 2.33334M1.66675 3.40001V5.93334C1.66675 6.30671 1.66675 6.4934 1.73941 6.636C1.80333 6.76145 1.90531 6.86343 2.03075 6.92735C2.17336 7.00001 2.36005 7.00001 2.73341 7.00001H5.26675C5.64012 7.00001 5.8268 7.00001 5.96941 6.92735C6.09485 6.86343 6.19684 6.76145 6.26075 6.636C6.33341 6.4934 6.33341 6.30671 6.33341 5.93334V3.40001C6.33341 3.02664 6.33341 2.83996 6.26075 2.69735C6.19684 2.57191 6.09485 2.46992 5.96941 2.40601C5.8268 2.33334 5.64012 2.33334 5.26675 2.33334H2.73341C2.36005 2.33334 2.17336 2.33334 2.03075 2.40601C1.90531 2.46992 1.80333 2.57191 1.73941 2.69735C1.66675 2.83996 1.66675 3.02664 1.66675 3.40001ZM1.66675 10.7333V13.2667C1.66675 13.64 1.66675 13.8267 1.73941 13.9693C1.80333 14.0948 1.90531 14.1968 2.03075 14.2607C2.17336 14.3333 2.36005 14.3333 2.73341 14.3333H5.26675C5.64012 14.3333 5.8268 14.3333 5.96941 14.2607C6.09485 14.1968 6.19684 14.0948 6.26075 13.9693C6.33341 13.8267 6.33341 13.64 6.33341 13.2667V10.7333C6.33341 10.36 6.33341 10.1733 6.26075 10.0307C6.19684 9.90524 6.09485 9.80325 5.96941 9.73934C5.8268 9.66668 5.64012 9.66668 5.26675 9.66668H2.73341C2.36005 9.66668 2.17336 9.66668 2.03075 9.73934C1.90531 9.80325 1.80333 9.90524 1.73941 10.0307C1.66675 10.1733 1.66675 10.36 1.66675 10.7333Z" stroke="currentColor" stroke-width="1.25" stroke-linecap="round" stroke-linejoin="round"></path></svg>
