<svg width="16" height="16" viewBox="0 0 16 16" fill="none" xmlns="http://www.w3.org/2000/svg"><path d="M8.00683 5.5V7M8.00683 5.5C7.17841 5.5 6.50683 4.82843 6.50683 4C6.50683 3.17157 7.17841 2.5 8.00683 2.5M8.00683 5.5C8.83526 5.5 9.50683 4.82843 9.50683 4C9.50683 3.17157 8.83526 2.5 8.00683 2.5M8.00683 5.5C8.83744 5.5 9.51074 4.82843 9.51074 4C9.51074 3.17157 8.83744 2.5 8.00683 2.5M8.00683 5.5C7.17623 5.5 6.50285 4.82843 6.50285 4C6.50285 3.17157 7.17623 2.5 8.00683 2.5M8.00683 7C8.00683 7.26522 8.11219 7.51957 8.29973 7.70711C8.48726 7.89464 8.74162 8 9.00683 8H10.5068C10.772 8 11.0264 8.10536 11.2139 8.29289C11.4015 8.48043 11.5068 8.73478 11.5068 9V10.5M8.00683 7C8.00683 7.26522 7.90116 7.51957 7.71314 7.70711C7.52511 7.89464 7.27008 8 7.00417 8H5.50023C5.23431 8 4.97929 8.10536 4.79126 8.29289C4.60323 8.48043 4.4976 8.73478 4.4976 9V10.5M11.5068 10.5C12.3353 10.5 13.0068 11.1716 13.0068 12C13.0068 12.8284 12.3353 13.5 11.5068 13.5C10.6784 13.5 10.0068 12.8284 10.0068 12C10.0068 11.1716 10.6784 10.5 11.5068 10.5ZM4.4976 10.5C3.66699 10.5 2.99365 11.1716 2.99365 12C2.99365 12.8284 3.66699 13.5 4.4976 13.5C5.3282 13.5 6.00154 12.8284 6.00154 12C6.00154 11.1716 5.3282 10.5 4.4976 10.5Z" stroke="currentColor" stroke-width="1.25" stroke-linecap="round" stroke-linejoin="round"></path></svg>
